<?xml version="1.0" standalone="no"?>
<!DOCTYPE svg PUBLIC "-//W3C//DTD SVG 1.1//EN" "http://www.w3.org/Graphics/SVG/1.1/DTD/svg11.dtd" >
<svg xmlns="http://www.w3.org/2000/svg" xmlns:xlink="http://www.w3.org/1999/xlink" version="1.1">
<metadata>
Created by FontForge 20161116 at Sat Mar 12 16:03:04 2011
 By Jimmy Wärting
Copyright Arkandis Digital Foundry under the GNU General Public License V2 and later, with font exception.
</metadata>
<defs>
<font id="AurelisADFScriptNo2Std-CdIta" horiz-adv-x="493" >
  <font-face 
    font-family="Aurelis ADF Script No2 Std Cond"
    font-weight="400"
    font-style="italic"
    font-stretch="condensed"
    units-per-em="1000"
    panose-1="3 2 5 6 7 0 0 9 0 3"
    ascent="750"
    descent="-250"
    x-height="415"
    cap-height="685"
    bbox="-393 -286 2068 940"
    underline-thickness="50"
    underline-position="-125"
    slope="-24"
    stemh="34"
    stemv="89"
    unicode-range="U+0020-FB06"
  />
<missing-glyph horiz-adv-x="797" 
d="M297 0v700h500v-700h-500zM547 395l170 255h-340zM577 350l170 -255v510zM377 50h340l-170 255zM347 605v-510l170 255z" />
    <glyph glyph-name="AE" unicode="AE" horiz-adv-x="819" 
d="M635 618l-294 -319h159zM308 260c-125 -132 -176 -177 -176 -222c0 -13 8 -20 25 -20c-12 -18 -43 -32 -78 -32h-8c-20 0 -29 5 -29 16c0 17 22 48 63 95l462 499c12 12 17 23 17 32c0 8 -5 13 -15 14c37 20 66 32 105 33h331c36 -2 54 -31 54 -61c0 -53 -66 -79 -93 -82
c-27 1 -44 13 -44 32c0 5 2 11 5 18c21 3 32 13 33 31c0 2 1 3 1 5c0 12 -22 19 -79 19h-17h-98c-28 0 -28 -8 -42 -34l-93 -222h62c65 0 82 12 128 95h23l-98 -232h-23c7 22 12 39 13 52v7c0 29 -20 37 -60 37h-63l-110 -260c-7 -17 -10 -24 -10 -30c0 -13 16 -13 66 -13
h21h5c127 0 151 34 209 103l41 -38c-29 -52 -70 -100 -109 -102h-349l-46 21c32 9 60 25 88 85l-1 2l65 152h-176z" />
    <glyph glyph-name="ae" unicode="ae" horiz-adv-x="703" 
d="M485 132v-11c0 -32 13 -73 80 -73c25 0 71 4 109 16l5 -18c-68 -38 -119 -60 -184 -60c-74 3 -64 64 -124 64c-6 0 -12 -1 -19 -2c-46 -42 -90 -62 -130 -62c-62 0 -108 35 -108 103c0 122 141 326 307 326c27 0 42 -6 59 -21l70 21c15 -1 22 -9 22 -25
c0 -5 -1 -10 -2 -16c42 29 87 41 135 41c41 0 75 -18 75 -53s-37 -137 -282 -175c-7 -20 -11 -39 -13 -55zM412 387c-139 0 -200 -210 -200 -269v-8c0 -47 20 -72 63 -72c35 0 88 40 98 64l79 185c4 12 7 23 8 35v8c0 32 -16 57 -48 57zM536 269l-23 -46
c135 39 173 62 189 130c2 4 2 8 2 12v1c0 13 -6 22 -23 22c-36 0 -91 -24 -145 -119z" />
    <glyph glyph-name="OE" unicode="OE" horiz-adv-x="911" 
d="M639 649c-208 0 -376 -374 -376 -515c0 -72 36 -112 110 -112c71 0 117 42 145 109l169 396c11 26 17 50 17 70c0 25 -11 44 -34 49zM161 158c0 188 207 527 503 527c50 0 57 -9 87 -10h355c37 -2 54 -31 54 -61c0 -54 -67 -79 -93 -82c-28 1 -43 13 -43 32
c0 5 1 11 4 18c21 3 32 13 33 31c1 2 1 3 1 5c0 12 -22 19 -80 19h-15h-99c-28 0 -28 -8 -43 -34l-93 -222h63c65 0 82 12 127 95h24l-98 -232h-24c9 22 13 39 15 52v7c0 29 -20 37 -60 37h-65l-109 -260c-7 -17 -10 -24 -10 -30c0 -13 17 -13 66 -13h22h5
c127 0 150 34 208 103l40 -38c-28 -52 -70 -100 -109 -102h-304c-34 0 -59 -3 -86 -7c-27 -3 -56 -7 -98 -7c-115 0 -178 66 -178 172z" />
    <glyph glyph-name="oe" unicode="oe" horiz-adv-x="697" 
d="M485 130v-13c0 -31 12 -69 74 -69c27 0 72 4 110 16l4 -18c-66 -38 -118 -60 -180 -60c-43 1 -73 33 -81 80c-50 -51 -110 -80 -166 -80c-71 0 -126 43 -126 122c0 106 115 307 309 307c57 0 96 -26 104 -77c51 50 108 77 169 77c40 0 74 -18 74 -54
c0 -71 -108 -149 -277 -177c-7 -20 -12 -38 -14 -54zM261 20c75 0 190 146 202 270c0 6 1 13 1 18c0 44 -18 73 -50 73c-80 0 -205 -153 -205 -271v-12c0 -47 17 -78 52 -78zM536 267l-18 -36c-1 -3 -2 -7 -4 -11c128 39 168 65 183 133c2 4 2 8 2 12v1c0 13 -5 22 -21 22
c-35 0 -88 -26 -142 -121z" />
    <glyph glyph-name="f_f" unicode="ff" horiz-adv-x="590" 
d="M617 400h122l-13 -32h-122l-161 -382c-89 -222 -226 -268 -319 -270c-38 0 -74 16 -100 43c-57 -32 -116 -42 -170 -43c-66 0 -110 32 -136 84c46 -40 91 -50 124 -50c102 7 194 51 278 236l162 382h-82l13 32h82c68 157 180 285 277 285c40 -1 54 -17 54 -39
c0 -30 -30 -66 -55 -66l-30 27c15 1 28 21 28 33c0 10 -10 16 -27 16c-37 0 -69 -29 -93 -88l-72 -168h157c69 157 181 285 296 285c54 -1 72 -20 72 -44c0 -28 -32 -61 -62 -61l-41 27c18 1 32 19 32 32c0 10 -14 17 -37 17c-45 0 -81 -29 -106 -88zM41 -230
c30 -15 57 -20 76 -20c82 7 160 51 242 236l162 382h-156l-161 -382c-45 -110 -102 -177 -163 -216z" />
    <glyph glyph-name="f_i" unicode="fi" horiz-adv-x="516" 
d="M594 603c17 1 29 19 29 32c0 10 -10 22 -34 22c-3 0 -6 -1 -10 -1c-37 0 -127 -86 -171 -190l-28 -66h132l56 15c12 -1 20 -14 20 -33c0 -11 -3 -23 -9 -37l-111 -261c-6 -16 -10 -29 -10 -39c0 -15 7 -23 24 -25l-83 -34c-18 1 -30 13 -30 37c0 15 5 37 17 64l88 209
c12 28 18 46 19 59v4c0 4 0 7 -1 9h-124l-162 -382c-84 -204 -213 -270 -349 -270c-52 0 -117 26 -134 84c19 -30 81 -48 124 -48h6c101 9 192 53 269 234l162 382h-82l14 32h81c69 157 221 285 314 285c51 -1 82 -26 82 -53v-4c-5 -27 -35 -52 -61 -52z" />
    <glyph glyph-name="f_l" unicode="fl" horiz-adv-x="526" 
d="M702 615l-226 -531c-6 -16 -9 -29 -9 -39c0 -15 8 -23 23 -25l-83 -34c-18 1 -29 12 -29 36c0 16 5 37 17 65l201 477c5 10 8 19 12 28c-10 -8 -19 -12 -29 -12l-30 27c15 1 28 21 28 33c0 10 -10 16 -28 16c-36 0 -68 -29 -93 -88l-72 -168h99l-13 -32h-98l-162 -382
c-80 -192 -200 -270 -351 -270c-51 0 -110 24 -132 84c17 -25 76 -49 121 -49h1c100 10 200 54 278 235l161 382h-81l13 32h82c68 157 180 285 278 285c27 -1 41 -8 48 -20l62 20c14 -1 22 -9 22 -27c0 -11 -3 -25 -10 -43z" />
    <glyph glyph-name="f_f_i" unicode="ffi" horiz-adv-x="729" 
d="M795 345l-111 -261c-6 -16 -9 -29 -9 -38c0 -15 7 -24 22 -26l-81 -34c-18 1 -30 12 -30 36c0 16 5 37 16 65l89 209c14 30 20 49 21 61c1 5 0 9 -1 13l-119 -2l-162 -382c-89 -222 -225 -268 -318 -270c-38 0 -74 17 -101 45c-58 -33 -117 -44 -172 -45
c-67 0 -100 32 -125 84c45 -40 80 -50 112 -50c103 7 195 51 279 236l161 382h-82l14 32h81c69 157 181 285 278 285c40 -1 53 -17 53 -39c0 -4 0 -8 -1 -14c-8 -27 -32 -52 -53 -52l-31 27c16 1 29 21 29 33c0 10 -11 16 -29 16c-36 0 -67 -29 -92 -88l-71 -168h95h3h63
c67 157 189 285 285 285c44 -1 98 -20 98 -44c0 -3 0 -6 -1 -9c-6 -27 -34 -52 -60 -52l-37 27c12 1 27 15 28 32c0 10 -41 17 -59 17c-37 0 -76 -29 -102 -88l-71 -168l138 -1l42 16c12 -1 20 -14 20 -33c0 -11 -2 -23 -9 -37zM28 -229c30 -16 58 -21 77 -21
c82 7 160 51 242 236l162 382h-62h-3h-94l-162 -382c-45 -109 -101 -175 -160 -215z" />
    <glyph glyph-name="f_f_l" unicode="ffl" horiz-adv-x="766" 
d="M614 400h98l-13 -32h-97l-162 -382c-90 -222 -226 -268 -319 -270c-38 0 -74 16 -99 43c-57 -32 -116 -42 -170 -43c-67 0 -111 32 -136 84c45 -40 91 -50 123 -50c103 7 195 51 279 236l161 382h-82l14 32h81c69 157 181 285 278 285c40 -1 54 -17 54 -39
c0 -30 -31 -66 -55 -66l-31 27c16 1 29 21 29 33c0 10 -11 16 -28 16c-37 0 -68 -29 -93 -88l-71 -168h157c68 157 194 285 288 285c31 -1 47 -11 53 -25l61 25c14 -1 22 -9 22 -27c0 -11 -2 -25 -10 -43l-225 -531c-7 -16 -10 -29 -10 -38c0 -15 8 -24 23 -26l-82 -34
c-19 1 -30 12 -30 36c0 16 6 37 17 65l201 477c6 13 11 24 14 34c-11 -11 -24 -18 -35 -18l-31 27c15 1 29 21 29 33c0 10 -11 16 -29 16c-36 0 -78 -29 -102 -88zM39 -230c29 -15 57 -20 76 -20c81 7 159 51 242 236l161 382h-155l-162 -382c-45 -110 -102 -177 -162 -216z
" />
    <glyph glyph-name=".notdef" horiz-adv-x="797" 
d="M297 0v700h500v-700h-500zM547 395l170 255h-340zM577 350l170 -255v510zM377 50h340l-170 255zM347 605v-510l170 255z" />
    <glyph glyph-name="space" unicode=" " horiz-adv-x="250" 
 />
    <glyph glyph-name="exclam" unicode="!" horiz-adv-x="271" 
d="M420 685c19 0 29 -13 29 -34c0 -16 -6 -37 -16 -60l-222 -415h-13l131 418c21 48 56 91 91 91zM93 25c0 34 38 73 79 73c20 0 35 -12 35 -32c0 -33 -35 -75 -81 -75c-23 4 -33 16 -33 34z" />
    <glyph glyph-name="quotedbl" unicode="&#x22;" horiz-adv-x="366" 
d="M560 676c17 0 29 -8 29 -23c0 -38 -103 -178 -174 -221c90 112 53 128 85 203c8 21 32 41 60 41zM390 676c18 0 31 -8 31 -23c0 -39 -102 -178 -175 -221c90 112 53 128 85 203c8 21 32 41 59 41z" />
    <glyph glyph-name="numbersign" unicode="#" horiz-adv-x="517" 
d="M432 271l76 134h-120l-73 -134h117zM490 271h100l-24 -55h-109l-122 -216h-58l122 216h-115l-118 -216h-58l124 216h-107l24 55h116l76 134h-109l24 55h115l110 202h48l-110 -202h120l116 202h58l-116 -202h97l-24 -55h-104z" />
    <glyph glyph-name="dollar" unicode="$" horiz-adv-x="518" 
d="M185 156c15 0 40 -14 40 -35c0 -2 0 -5 -1 -7c-25 -2 -54 -31 -54 -50c0 -15 19 -27 47 -34l127 300c-49 36 -71 73 -71 115c0 91 88 187 215 227l34 78h32l-30 -69c6 1 12 2 19 3c6 1 12 1 18 1c8 0 19 0 28 -1l28 66h32l-30 -70c57 -13 109 -44 109 -93
c0 -26 -20 -96 -97 -100c-32 3 -45 16 -45 38c0 9 3 21 7 34c20 0 44 16 44 40c0 18 -16 30 -36 38l-112 -264c53 -47 79 -93 79 -141c0 -21 -5 -42 -14 -64c-43 -94 -132 -153 -225 -174l-38 -90h-33l37 84c-14 -1 -26 -2 -39 -2h-25l-35 -82h-33l37 84
c-69 6 -129 22 -129 65c0 46 61 103 114 103zM350 42c59 27 100 93 100 148c0 19 -4 37 -16 53zM369 312l-122 -287c8 -3 17 -3 26 -3c13 0 26 2 38 6l101 240zM467 623c-51 -24 -85 -66 -85 -110c0 -18 6 -35 17 -52zM569 638l-23 5c-13 0 -27 -2 -40 -6l-85 -202l44 -44z
" />
    <glyph glyph-name="percent" unicode="%" horiz-adv-x="645" 
d="M482 15c88 0 166 199 166 270c0 28 -8 50 -32 50h-1c-71 0 -153 -188 -161 -267v-13c0 -24 7 -40 28 -40zM404 84c11 111 118 278 223 278h1c58 0 85 -42 85 -96c0 -112 -116 -278 -244 -278c-47 0 -66 33 -66 78c0 5 0 11 1 18zM327 326c72 0 153 193 161 269
c0 5 1 9 1 13c0 23 -8 39 -27 39h-1c-84 0 -168 -187 -168 -267c0 -31 10 -54 34 -54zM228 393c0 114 118 282 246 282c45 0 64 -32 64 -77c0 -6 -1 -12 -1 -19c-11 -111 -116 -281 -223 -281c-61 0 -86 42 -86 95zM805 671l-656 -706l-15 24l652 703z" />
    <glyph glyph-name="ampersand" unicode="&#x26;" horiz-adv-x="615" 
d="M371 343c-12 -8 -178 -88 -178 -221v-7c0 -43 18 -76 57 -76c31 0 75 22 136 65c-10 51 -16 114 -16 188c0 16 0 33 1 51zM580 644c-63 0 -112 -84 -124 -202c-1 -9 -1 -17 -1 -26c130 70 157 145 161 181v8c0 23 -11 39 -36 39zM467 178c64 60 124 131 124 163
c0 15 -13 19 -26 21l61 52l29 -34c-8 -50 -76 -136 -182 -230c10 -61 36 -92 91 -92c17 0 45 2 76 22c-58 -69 -100 -93 -149 -93h-3c-45 0 -72 31 -93 91c-84 -66 -148 -91 -206 -91c-63 0 -108 29 -108 85c0 52 36 177 254 283l39 22c9 65 21 113 34 145
c35 83 114 154 184 154c40 0 66 -23 66 -63c0 -3 0 -7 -1 -10c-1 -14 -6 -30 -13 -48c-33 -77 -94 -126 -191 -171v-38c0 -62 4 -119 14 -168z" />
    <glyph glyph-name="quotesingle" unicode="'" horiz-adv-x="198" 
d="M386 676c18 0 30 -8 30 -23c0 -39 -101 -178 -174 -221c90 112 53 128 84 203c9 21 32 41 60 41z" />
    <glyph glyph-name="parenleft" unicode="(" horiz-adv-x="315" 
d="M577 676l2 -16c-182 -110 -253 -198 -340 -405c-42 -99 -70 -180 -70 -252c0 -59 19 -112 62 -164l-18 -16c-67 52 -102 142 -102 242c0 61 13 125 39 187c74 175 209 315 427 424z" />
    <glyph glyph-name="parenright" unicode=")" horiz-adv-x="300" 
d="M-50 -177l-2 16c177 104 253 194 342 405c45 107 67 187 67 252s-22 115 -61 164l19 16c64 -60 104 -139 104 -239c0 -123 -75 -418 -469 -614z" />
    <glyph glyph-name="asterisk" unicode="*" horiz-adv-x="459" 
d="M579 460c-8 -17 -33 -41 -50 -47c-18 16 -49 31 -120 34l31 -63l-64 30c5 -59 16 -96 33 -128c-9 -21 -33 -47 -54 -54c-19 7 -41 32 -51 54c18 28 31 74 36 128l-68 -31l32 63c-65 -3 -99 -17 -119 -33c-17 6 -41 30 -49 47c9 18 33 43 49 47c20 -15 51 -28 118 -32
l-31 69l69 -30c-5 54 -18 83 -35 110c8 21 31 47 50 54c21 -7 44 -33 55 -54c-19 -26 -32 -47 -36 -110l65 30l-30 -70c66 4 98 17 120 33c17 -4 39 -29 49 -47z" />
    <glyph glyph-name="plus" unicode="+" horiz-adv-x="477" 
d="M100 246h186v189h67v-189h182v-70h-183v-190h-67v190h-185v70z" />
    <glyph glyph-name="comma" unicode="," horiz-adv-x="221" 
d="M49 22c0 30 34 80 89 80c30 0 52 -18 52 -49c0 -39 -46 -139 -187 -194v19c69 37 112 73 126 106c4 9 0 13 -8 14c0 0 -6 -1 -13 -2c-6 -1 -13 -2 -16 -2c-27 0 -43 9 -43 28z" />
    <glyph glyph-name="hyphen" unicode="-" horiz-adv-x="363" 
d="M98 246h333l-19 -70h-333z" />
    <glyph glyph-name="period" unicode="." horiz-adv-x="214" 
d="M60 22c0 31 39 78 85 78c20 0 37 -11 37 -33c0 -35 -40 -78 -86 -78c-19 0 -36 12 -36 33z" />
    <glyph glyph-name="slash" unicode="/" horiz-adv-x="348" 
d="M538 676h67l-520 -690h-68z" />
    <glyph glyph-name="zero" unicode="0" horiz-adv-x="506" 
d="M534 657c-60 0 -138 -99 -225 -292l-15 -36c-38 -90 -61 -160 -69 -212c-2 -14 -3 -26 -4 -37c-1 -5 -1 -10 -1 -15c0 -35 13 -53 38 -53c63 0 145 105 234 318c39 94 64 170 72 226c2 14 4 27 5 38c0 5 1 10 1 14c0 24 -7 38 -20 45zM159 166c31 191 212 517 389 517
c53 0 84 -46 84 -127c0 -18 -1 -37 -4 -58c-33 -200 -211 -511 -380 -511c-55 0 -92 42 -92 126c0 16 0 34 3 53z" />
    <glyph glyph-name="one" unicode="1" horiz-adv-x="274" 
d="M282 600l180 87l15 -11l-245 -575c-5 -11 -9 -23 -10 -32c-1 -4 -1 -7 -1 -10c0 -19 9 -31 32 -32l-12 -27h-180l11 27c34 2 64 26 87 79l187 441c8 19 11 33 12 42c2 12 0 16 -4 18l-71 -31z" />
    <glyph glyph-name="two" unicode="2" horiz-adv-x="461" 
d="M59 0l14 35c48 118 454 388 480 550c1 6 1 11 1 17c0 35 -20 51 -53 51c-44 0 -94 -32 -130 -85l-67 -1c49 75 133 120 204 120c65 0 104 -36 104 -94c0 -8 -1 -15 -1 -23c-3 -16 -7 -33 -16 -51c-61 -141 -366 -309 -424 -444h250l-17 -75h-345z" />
    <glyph glyph-name="three" unicode="3" horiz-adv-x="437" 
d="M201 20c107 1 197 142 212 239c2 12 2 20 2 25c0 55 -28 84 -94 85l15 33h4c60 0 128 26 180 144c6 15 10 28 12 40c0 6 1 11 1 15v6c0 30 -16 46 -49 46c-45 0 -96 -32 -122 -92v-2v-1v-2h-64c45 77 134 131 205 131c52 0 90 -33 90 -86c0 -6 0 -12 -1 -18
c-7 -45 -44 -136 -162 -195c38 -15 65 -43 65 -95c0 -8 -1 -17 -1 -27c-28 -172 -198 -279 -315 -279c-63 0 -106 34 -106 94c0 7 1 14 2 21l1 3h66c-1 -6 -2 -12 -2 -18c0 -42 22 -67 61 -67z" />
    <glyph glyph-name="four" unicode="4" horiz-adv-x="453" 
d="M442 258h90l-27 -64h-90l-55 -132c-3 -7 -5 -12 -5 -18c-1 -2 -1 -4 -1 -6c0 -12 7 -18 20 -18c-19 -20 -47 -33 -77 -33c-15 0 -22 9 -22 24c0 3 0 6 1 9c1 9 5 19 9 30l60 144h-224l28 64c108 73 362 325 403 419h69zM506 570c-98 -129 -213 -234 -318 -312h185z" />
    <glyph glyph-name="five" unicode="5" horiz-adv-x="425" 
d="M207 20c90 1 186 116 201 212c2 8 2 16 2 23v6c0 87 -77 100 -154 100h-15l166 316h251l-46 -75h-201l-104 -201c81 -1 190 -16 190 -123c0 -8 -1 -16 -2 -25c-23 -148 -184 -266 -310 -266c-62 0 -106 34 -106 94c0 7 0 14 2 21v3h67c-1 -6 -1 -12 -1 -18
c0 -42 22 -67 60 -67z" />
    <glyph glyph-name="six" unicode="6" horiz-adv-x="487" 
d="M257 20c80 0 175 153 191 255c2 11 3 19 3 28c0 43 -18 67 -58 67c-75 0 -164 -130 -183 -245c-1 -11 -1 -21 -1 -31c-1 -2 -1 -4 -1 -7c0 -39 13 -67 49 -67zM145 155c30 191 247 532 488 532h7l-15 -35c-150 -1 -258 -159 -320 -301c48 46 93 65 126 65c3 0 6 -1 8 -1
c57 0 96 -34 96 -98c0 -9 -1 -19 -2 -30c-19 -116 -133 -300 -291 -300c-62 0 -101 44 -101 123c0 14 2 29 4 45z" />
    <glyph glyph-name="seven" unicode="7" horiz-adv-x="425" 
d="M293 603l41 74h343l-12 -27c-27 -61 -476 -535 -490 -614c-2 -9 0 -16 14 -16c-8 -20 -42 -34 -65 -35c-17 0 -27 8 -27 24v8c2 10 7 22 15 36c22 55 418 504 441 550h-260z" />
    <glyph glyph-name="eight" unicode="8" horiz-adv-x="442" 
d="M495 653c-64 0 -115 -62 -127 -124l-3 -18v-10c0 -33 12 -64 34 -101l10 6c105 64 133 144 139 180c1 6 1 11 1 15c0 34 -18 52 -54 52zM233 20c81 0 135 86 146 153c1 7 1 15 1 22c0 29 -9 56 -25 84l-23 44c-66 -52 -100 -94 -132 -164c-9 -20 -15 -38 -19 -54
c0 -7 -1 -13 -2 -19v-10c0 -35 17 -56 54 -56zM609 583c-19 -121 -167 -186 -196 -201c37 -54 53 -97 53 -137c0 -9 0 -18 -2 -26c-17 -102 -110 -232 -254 -232c-58 0 -97 34 -97 94c0 7 1 14 2 21c3 15 7 32 14 49c32 72 74 111 192 192c-23 58 -37 91 -37 122
c0 5 0 10 1 15c14 94 120 207 229 207c55 0 96 -33 96 -86c0 -6 0 -12 -1 -18z" />
    <glyph glyph-name="nine" unicode="9" horiz-adv-x="489" 
d="M519 652c-93 0 -175 -163 -188 -246c-2 -11 -2 -19 -2 -26c0 -44 17 -68 57 -68c81 0 166 139 183 242c1 12 1 21 1 31c0 40 -13 67 -51 67zM633 524c-27 -174 -238 -537 -490 -537h-2l15 33c80 2 214 68 318 309c-48 -45 -94 -64 -126 -64h-9c-57 0 -95 35 -95 99
c0 10 1 20 2 30c18 110 121 293 288 293c61 0 103 -43 103 -121c0 -13 -2 -27 -4 -42z" />
    <glyph glyph-name="colon" unicode=":" horiz-adv-x="221" 
d="M65 22c0 31 40 78 85 78c20 0 37 -11 37 -33c0 -35 -40 -78 -86 -78c-19 0 -36 12 -36 33zM217 381c0 31 39 78 84 78c21 0 38 -12 38 -34c0 -35 -41 -77 -86 -77c-19 0 -36 12 -36 33z" />
    <glyph glyph-name="semicolon" unicode=";" horiz-adv-x="227" 
d="M210 381c0 35 42 78 84 78c19 0 36 -12 36 -33c0 -36 -40 -78 -84 -78c-20 0 -36 12 -36 33zM60 30c0 29 33 72 85 72c31 0 53 -18 53 -49c0 -61 -76 -150 -188 -194v19c71 37 112 73 127 106c4 9 1 13 -9 14l-12 -2c-7 -1 -13 -2 -16 -2c-27 4 -40 16 -40 36z" />
    <glyph glyph-name="less" unicode="&#x3c;" horiz-adv-x="612" 
d="M607 62l-3 -72l-505 230v66l508 230v-72l-419 -191z" />
    <glyph glyph-name="equal" unicode="=" horiz-adv-x="665" 
d="M160 186h503l-1 -66h-504zM160 386h503l-1 -66h-503z" />
    <glyph glyph-name="greater" unicode="&#x3e;" horiz-adv-x="612" 
d="M666 220l-509 -230l3 72l418 191l-419 191l1 72l506 -230v-66z" />
    <glyph glyph-name="question" unicode="?" horiz-adv-x="449" 
d="M180 22c0 31 38 77 85 77c19 0 33 -11 33 -30v-1c-1 -30 -33 -76 -79 -76c-23 0 -39 10 -39 30zM267 495c0 59 95 181 233 181c67 0 128 -33 128 -98c0 -104 -132 -203 -202 -260c-55 -45 -82 -94 -119 -154h-36c40 89 89 130 152 206c75 89 114 164 114 209v1
c0 38 -20 66 -66 66s-107 -26 -122 -62c-10 -20 -16 -37 -16 -50s6 -22 23 -24c-11 -24 -32 -41 -58 -41c-21 0 -31 9 -31 26z" />
    <glyph glyph-name="at" unicode="@" horiz-adv-x="777" 
d="M515 187c67 0 141 128 155 239c-2 24 -13 37 -33 38l-21 -3c-84 -24 -149 -134 -149 -214c0 -37 15 -60 48 -60zM619 654c-202 0 -337 -204 -337 -381c0 -143 95 -248 248 -248c63 0 142 13 204 48c-9 -11 -80 -87 -210 -87h-10c-183 0 -315 126 -315 295
c0 209 214 404 424 404c166 0 284 -109 284 -254c0 -142 -115 -288 -226 -288c-45 0 -80 25 -80 69v4c-46 -45 -91 -69 -135 -72c-41 0 -73 34 -73 88c0 103 112 276 236 276c44 0 59 -26 64 -52l16 38h69l-103 -254c-3 -8 -5 -14 -5 -18c-1 -5 -2 -10 -2 -15
c0 -21 11 -31 33 -31c69 0 164 120 164 240c0 133 -108 238 -246 238z" />
    <glyph glyph-name="A" unicode="A" horiz-adv-x="570" 
d="M631 -220l-200 -64c-23 0 -32 29 -32 59v5l42 436h-199l-92 -117c-18 -19 -29 -41 -29 -56c0 -13 8 -23 28 -23c-11 -21 -56 -34 -76 -34h-3h-5c-19 0 -35 10 -35 25c0 3 1 6 2 9l434 546c10 15 26 55 26 64v4c0 9 -4 15 -11 17c27 26 54 34 89 34l-83 -849v-14
c0 -36 10 -54 53 -54c22 0 52 4 91 12zM475 532l-204 -275h177z" />
    <glyph glyph-name="B" unicode="B" horiz-adv-x="551" 
d="M428 366c114 0 183 128 188 193v10c0 45 -32 69 -97 69h-34c-11 0 -21 -10 -29 -30l-103 -242h75zM336 326l-104 -248c-4 -10 -6 -17 -6 -23c0 -14 12 -18 37 -18c112 0 177 47 217 142c10 22 15 42 17 59c0 4 1 8 1 11c0 61 -53 77 -162 77zM320 0h-284
c51 12 76 38 107 109l193 457c13 28 19 49 19 65c0 24 -13 37 -33 44h227c105 0 164 -36 164 -106c0 -96 -108 -206 -205 -221c70 -23 102 -60 102 -106c0 -72 -84 -233 -290 -242z" />
    <glyph glyph-name="C" unicode="C" horiz-adv-x="598" 
d="M601 117c0 -85 -176 -131 -266 -131h-5c-115 0 -176 72 -176 186c0 45 12 97 36 153c92 218 292 344 433 351h15c74 0 101 -16 135 -44c17 -19 27 -37 27 -61c0 -49 -54 -121 -106 -123l-36 48c32 2 59 40 59 68c0 4 -1 8 -2 11c-9 30 -20 61 -88 61h-6
c-177 0 -346 -281 -353 -456c-1 -10 -2 -19 -2 -28c0 -69 28 -122 106 -122c51 0 83 3 149 39c1 3 3 8 3 14c0 9 -4 19 -19 19c9 26 42 48 69 48c21 -3 27 -17 27 -33z" />
    <glyph glyph-name="D" unicode="D" horiz-adv-x="624" 
d="M460 619l-10 -20l-221 -521c-5 -10 -7 -18 -7 -24c0 -13 10 -17 29 -17c169 0 292 106 371 296c22 51 36 98 39 140c1 8 1 16 1 24c0 86 -46 141 -156 141c-22 0 -38 -6 -46 -19zM141 109l193 457c13 30 20 52 20 68c0 20 -11 32 -28 41h218c146 0 220 -77 220 -201
c0 -42 -11 -90 -33 -141c-96 -228 -295 -333 -463 -333h-228c48 18 77 44 101 109z" />
    <glyph glyph-name="E" unicode="E" horiz-adv-x="555" 
d="M655 582c31 5 34 28 34 36c0 12 -23 19 -80 19h-16h-100c-27 0 -27 -8 -41 -34l-93 -222h63c64 0 81 12 127 95h23l-98 -232h-23c8 22 13 39 14 52v6c0 30 -20 38 -59 38h-65l-109 -260c-8 -18 -11 -24 -11 -30c0 -13 17 -13 66 -13h22h5c128 0 150 34 209 103l40 -38
c-29 -52 -71 -100 -110 -102h-354l-47 21c32 9 61 25 91 88l192 457c13 30 17 50 17 65c0 20 -9 30 -22 44h402c37 -2 54 -31 54 -60c0 -9 -2 -19 -5 -27c-15 -31 -58 -53 -87 -56z" />
    <glyph glyph-name="F" unicode="F" horiz-adv-x="526" 
d="M566 476l-98 -232h-23c7 23 11 40 11 53c0 3 1 6 1 8c0 31 -20 35 -60 35h-55l-97 -231c-36 -87 -72 -123 -102 -123l-91 34c31 2 59 15 95 100l189 446c12 31 18 50 18 65c0 19 -10 29 -25 44h384c39 -2 37 -64 52 -88l-82 -54c-60 0 -17 102 -81 104h-109h-3
c-15 0 -29 -12 -37 -34l-93 -222h55c67 0 86 19 128 95h23z" />
    <glyph glyph-name="G" unicode="G" horiz-adv-x="631" 
d="M635 676c74 0 100 -16 125 -44c16 -19 26 -37 26 -61c0 -49 -54 -121 -106 -123l-25 48c26 2 51 40 53 68c0 2 1 4 1 5c0 2 -1 4 -1 6c-4 30 -16 61 -83 61h-6c-143 0 -230 -112 -313 -310c-24 -57 -38 -108 -42 -151c-1 -9 -2 -17 -2 -25c0 -78 40 -124 121 -124
c53 0 112 23 127 59l51 122c5 10 8 19 9 27v4c0 26 -22 39 -55 40c21 48 102 66 132 66l79 -60c-22 -2 -42 -14 -62 -65l-70 -163c-46 -30 -167 -70 -245 -70c-137 0 -196 72 -196 182c0 221 257 508 482 508z" />
    <glyph glyph-name="H" unicode="H" horiz-adv-x="581" 
d="M140 109l187 444c11 24 15 41 15 54c0 26 -16 34 -34 37l133 41c15 -1 23 -7 23 -24c0 -19 -11 -52 -35 -108l-82 -193h213l82 193c9 24 15 41 16 54v6c0 21 -10 29 -24 31l120 41c16 -1 25 -7 25 -24c0 -19 -12 -52 -36 -108l-188 -444c-12 -29 -18 -49 -18 -62
c0 -20 13 -26 27 -27l-93 -34c-18 0 -35 17 -35 51c0 19 5 43 18 72l86 205h-212l-86 -205c-13 -29 -19 -49 -20 -62v-5c0 -16 8 -21 19 -22l-83 -34c-20 0 -36 17 -36 51c0 19 5 43 18 72z" />
    <glyph glyph-name="I" unicode="I" horiz-adv-x="258" 
d="M132 109l187 444c11 24 14 41 14 54c0 26 -16 34 -34 37l133 41c15 -1 24 -7 24 -24c0 -19 -11 -52 -35 -108l-187 -444c-14 -29 -18 -49 -18 -62c0 -20 11 -26 27 -27l-93 -34c-20 0 -36 17 -36 51c0 19 5 43 18 72z" />
    <glyph glyph-name="J" unicode="J" horiz-adv-x="314" 
d="M449 571l-279 -658c-53 -124 -138 -197 -238 -197h-7c-53 0 -138 23 -159 84c28 -23 103 -44 154 -44h6c38 0 95 46 125 112l288 685c14 32 20 53 20 66c0 23 -18 21 -30 22c41 23 83 37 116 44c17 -1 28 -8 28 -29c0 -18 -7 -45 -24 -85z" />
    <glyph glyph-name="K" unicode="K" horiz-adv-x="526" 
d="M634 642l86 43c11 -2 29 -15 29 -33c0 -5 -1 -9 -3 -12c-35 -27 -290 -241 -316 -263c-2 -33 -3 -66 -3 -99c0 -208 44 -397 105 -483c12 -16 29 -25 63 -25c20 0 44 3 75 9l-166 -63c-81 0 -161 204 -161 487c0 38 1 77 4 117l-25 -19l-81 -192c-14 -32 -21 -54 -21 -67
c0 -16 9 -21 19 -22l-81 -34c-20 0 -41 8 -41 42c0 18 6 45 22 81l188 444c10 24 14 41 14 54c0 26 -16 34 -34 37l133 41c15 -1 23 -7 23 -24c0 -19 -11 -52 -35 -108l-83 -199c87 66 287 230 298 258c3 6 5 12 5 16c0 9 -6 14 -14 14z" />
    <glyph glyph-name="L" unicode="L" horiz-adv-x="537" 
d="M513 154l34 -56l-133 -98h-383c59 24 76 48 105 109l187 444c11 23 14 41 14 54c0 26 -16 34 -34 37l132 41c16 -1 25 -8 25 -25c0 -19 -10 -52 -35 -107l-187 -444c-14 -31 -18 -50 -20 -64c8 -5 24 -6 49 -6h53h1c73 0 144 61 192 115z" />
    <glyph glyph-name="M" unicode="M" horiz-adv-x="781" 
d="M628 120l179 452l-429 -572h-15l35 547l-171 -400c-47 -113 -87 -159 -110 -161c-22 0 -43 14 -43 34c32 0 67 20 111 127l184 434c2 6 3 11 3 17c0 21 -14 41 -35 41l116 46c23 -2 34 -33 34 -67c0 -5 -1 -10 -1 -15l-23 -446l344 464c38 48 60 63 94 64
c16 -1 29 -9 29 -34c0 -20 -9 -52 -30 -99l-174 -443c-11 -26 -19 -49 -19 -65c0 -15 7 -24 24 -24l-99 -34c-19 1 -30 11 -30 36c0 21 8 52 26 98z" />
    <glyph glyph-name="N" unicode="N" horiz-adv-x="634" 
d="M749 515l-97 -229c-38 -90 -57 -151 -57 -186c0 -29 12 -42 36 -42l-122 -72l-114 553l-166 -392c-47 -117 -95 -161 -115 -161c-30 0 -53 12 -59 34h5c37 0 82 25 126 127l180 425c1 3 2 7 2 10c0 23 -26 53 -50 58l112 45c32 -1 41 -35 48 -63l84 -446l143 339
c15 36 22 60 24 77v8c0 29 -18 33 -33 40l82 45c8 -7 14 -16 14 -32c0 -25 -13 -65 -43 -138z" />
    <glyph glyph-name="O" unicode="O" horiz-adv-x="647" 
d="M339 22c177 0 343 346 351 495c0 9 1 17 1 25c0 77 -40 106 -85 107c-180 0 -340 -337 -348 -492c-1 -10 -2 -19 -2 -28c0 -68 29 -107 83 -107zM160 183c0 214 233 502 461 502c101 0 167 -69 167 -192c0 -210 -234 -507 -467 -507c-96 0 -161 73 -161 197z" />
    <glyph glyph-name="P" unicode="P" horiz-adv-x="532" 
d="M400 341c183 0 216 185 217 214c1 3 1 7 1 10c0 50 -38 73 -112 73c-15 0 -25 -6 -32 -17l-8 -17l-110 -260c17 -2 31 -3 44 -3zM727 558c0 -78 -89 -257 -335 -257c-16 0 -34 1 -53 3l-82 -195c-39 -91 -73 -123 -100 -123l-94 32c33 0 56 6 96 102l189 446
c16 38 24 61 24 78c0 15 -7 23 -24 31h209c99 0 170 -41 170 -117z" />
    <glyph glyph-name="Q" unicode="Q" horiz-adv-x="646" 
d="M338 22c178 0 330 342 345 491c1 10 2 20 2 29c0 69 -28 107 -80 107c-86 0 -206 -98 -297 -314c-31 -73 -48 -134 -53 -183c-1 -9 -2 -18 -2 -27c0 -67 29 -103 85 -103zM155 176c0 207 239 509 464 509c94 0 144 -64 144 -165c0 -11 -1 -22 -2 -33
c-15 -150 -150 -438 -371 -489c-6 -13 -10 -26 -11 -39c0 -4 -1 -8 -1 -12c0 -87 97 -163 262 -163h6l-152 -68c-82 2 -201 60 -238 283c-65 34 -101 96 -101 177z" />
    <glyph glyph-name="R" unicode="R" horiz-adv-x="574" 
d="M469 602l-103 -246c139 1 198 35 245 145c9 22 15 42 17 59v9c0 47 -34 69 -102 69c-34 0 -45 -11 -57 -36zM851 -220l-175 -64c-125 46 -277 221 -277 530c0 23 1 48 3 73h-52l-89 -210c-35 -89 -79 -123 -105 -123l-89 34h7c29 0 55 13 90 100l189 446
c13 28 18 49 18 65c0 23 -12 36 -27 44h227c96 0 164 -35 164 -109c0 -19 -4 -42 -16 -67c-51 -122 -203 -160 -231 -160c-1 -6 -2 -12 -2 -18c-1 -13 -1 -26 -1 -39c0 -202 92 -404 212 -491c20 -14 43 -21 75 -21c21 0 47 4 79 10z" />
    <glyph glyph-name="S" unicode="S" horiz-adv-x="452" 
d="M329 80v17c0 101 -85 164 -85 282c0 8 1 16 2 24c3 32 13 68 31 109c43 104 161 173 230 173c60 0 146 -31 146 -100c0 -9 -2 -19 -6 -30c-19 -46 -47 -66 -90 -68l-34 72c16 0 40 16 41 41c0 30 -34 43 -64 43h-8c-59 0 -141 -56 -151 -153v-14
c0 -105 111 -186 111 -330c0 -205 -281 -430 -533 -430c-65 2 -140 33 -140 102c0 72 70 122 119 122h3l31 -42c-45 -4 -61 -69 -61 -93v-5c0 -41 31 -50 64 -50c113 2 292 72 377 261c11 25 15 48 17 69z" />
    <glyph glyph-name="T" unicode="T" horiz-adv-x="571" 
d="M295 120l218 513h-45c-77 0 -148 -74 -202 -128h-18l111 170h434l-17 -170h-25c-4 82 -12 128 -82 128h-4h-51l-221 -524c-38 -89 -72 -123 -105 -123l-73 34c18 0 43 12 80 100z" />
    <glyph glyph-name="U" unicode="U" horiz-adv-x="603" 
d="M753 515l-110 -261c-81 -190 -188 -268 -321 -268c-92 0 -143 41 -143 124c0 36 11 79 32 131l133 312c10 25 14 41 14 53c0 27 -23 26 -37 34l119 45c18 -1 29 -14 29 -39c0 -22 -8 -53 -24 -93l-135 -320c-21 -50 -33 -90 -36 -120c0 -5 -1 -9 -1 -14
c0 -49 30 -69 85 -69c84 0 161 37 236 215l114 270c17 41 25 69 27 87v8c0 30 -18 30 -31 30l76 45c9 0 14 -10 14 -26c0 -29 -14 -80 -41 -144z" />
    <glyph glyph-name="V" unicode="V" horiz-adv-x="544" 
d="M680 640l106 45h1c15 0 20 -7 20 -20c0 -23 -20 -57 -60 -115l-433 -564h-11l39 552c0 44 -19 101 -54 102l123 45c18 -1 22 -39 22 -76c0 -18 0 -34 -2 -47l-30 -401l277 367c34 45 42 64 42 80c0 18 -12 30 -40 32z" />
    <glyph glyph-name="W" unicode="W" horiz-adv-x="773" 
d="M558 311l-234 -325h-11l41 552c0 44 -19 101 -54 102l125 45c16 -1 21 -37 21 -73c0 -18 -2 -36 -3 -50l-33 -401l152 211l15 166v3c1 7 1 14 1 20c0 39 -11 78 -33 79l100 45c14 -1 18 -35 18 -71c0 -19 -1 -38 -2 -52l-33 -401l276 367c13 15 42 54 42 80
c0 18 -13 30 -40 32l107 45h2c13 0 19 -7 19 -19c0 -23 -22 -61 -61 -116l-430 -564h-12z" />
    <glyph glyph-name="X" unicode="X" horiz-adv-x="584" 
d="M721 743c27 30 41 42 67 43c13 0 18 -11 18 -29s-4 -35 -15 -59c-13 -36 -36 -72 -70 -104l-223 -227l33 -274c11 -30 42 -73 71 -73l-121 -34c-25 2 -38 40 -41 76l-23 226c-106 -102 -593 -571 -655 -572c-23 0 -36 27 -36 46c0 5 1 10 2 13c6 0 11 -1 16 -1
c34 0 64 13 104 38c138 106 416 366 565 514l-15 160c-12 94 -23 155 -72 157l104 43h1c17 0 42 -48 45 -80l19 -202l208 213c18 21 36 53 41 75c1 4 2 7 2 10v6c0 20 -10 35 -25 35z" />
    <glyph glyph-name="Y" unicode="Y" horiz-adv-x="547" 
d="M700 642l98 43c16 -1 23 -6 23 -14c0 -29 -67 -92 -120 -142l-194 -226l-81 -194c-37 -89 -86 -123 -119 -123l-65 34c28 0 49 4 86 100l74 174l-26 191c-15 86 -36 155 -83 157l116 43c39 -4 44 -44 52 -117l21 -221l211 226c29 29 39 45 39 54c0 13 -19 13 -32 15z" />
    <glyph glyph-name="Z" unicode="Z" horiz-adv-x="560" 
d="M295 545c0 58 65 130 139 130h4h357l-15 -34l-600 -603h199c74 0 113 66 163 132l44 -62l-122 -108h-430l15 38l618 599h-171h-7c-63 0 -79 -15 -90 -38c-5 -10 -9 -19 -9 -26c-1 -7 3 -12 14 -12h3l-73 -54c-25 0 -39 14 -39 38z" />
    <glyph glyph-name="bracketleft" unicode="[" horiz-adv-x="300" 
d="M135 -131h86l-10 -25h-211l345 818h211l-10 -25h-90c-31 -5 -52 -20 -64 -44l-284 -672c-5 -11 -8 -20 -8 -27c0 -17 13 -25 35 -25z" />
    <glyph glyph-name="backslash" unicode="\" horiz-adv-x="329" 
d="M244 -14l65 690h67l-63 -690h-69z" />
    <glyph glyph-name="bracketright" unicode="]" horiz-adv-x="284" 
d="M-46 -156l10 25h90c30 3 51 17 63 44l284 672c5 11 8 20 8 28c0 16 -12 24 -35 24h-85l10 25h211l-345 -818h-211z" />
    <glyph glyph-name="asciicircum" unicode="^" horiz-adv-x="422" 
d="M342 586l-144 -289h-68l182 365h60l140 -365h-68z" />
    <glyph glyph-name="underscore" unicode="_" horiz-adv-x="435" 
d="M410 -75l-22 -50h-439l22 50h439z" />
    <glyph glyph-name="grave" unicode="`" horiz-adv-x="312" 
d="M297 661h88c37 -2 111 -127 148 -129c-10 -10 -32 -20 -49 -20c-12 0 -34 2 -58 20c-22 16 -78 105 -129 129z" />
    <glyph glyph-name="a" unicode="a" horiz-adv-x="491" 
d="M406 387c-138 0 -199 -210 -199 -269v-8c0 -47 20 -72 63 -72c35 0 88 40 97 64l79 185c5 12 8 23 9 35v8c0 32 -16 57 -49 57zM108 89c0 122 142 326 308 326c26 0 42 -6 59 -21l69 21c14 -1 23 -9 23 -25c0 -11 -4 -26 -11 -45l-109 -253c-3 -8 -5 -16 -5 -23
c0 -20 14 -31 30 -31h4l-106 -52h-2c-15 0 -28 16 -28 39c0 9 3 21 8 32c-45 -42 -92 -71 -132 -71c-61 0 -108 35 -108 103z" />
    <glyph glyph-name="b" unicode="b" horiz-adv-x="477" 
d="M245 20c124 0 209 203 209 278v8c0 42 -21 61 -61 61c-36 0 -97 -45 -116 -90l-88 -207c-2 -4 -3 -8 -3 -11c0 -20 21 -39 59 -39zM552 316c0 -129 -162 -330 -333 -330c-54 0 -122 29 -122 60c0 3 1 5 2 8l219 519c7 16 11 32 11 44c0 18 -7 30 -15 30l96 38
c15 -2 23 -9 23 -25c0 -11 -4 -26 -13 -45l-121 -285c35 47 94 85 147 85c57 0 106 -32 106 -99z" />
    <glyph glyph-name="c" unicode="c" horiz-adv-x="431" 
d="M408 386c-121 0 -210 -174 -210 -250c0 -56 28 -88 68 -88c32 0 95 2 132 16l1 -18c-45 -27 -118 -60 -175 -60h-4h-3c-54 0 -104 49 -104 123c0 95 112 306 310 306h2h3c55 0 108 -22 108 -68c0 -8 -2 -17 -6 -27c-10 -26 -34 -50 -63 -52l-47 26c18 0 40 28 40 48v4
c-3 24 -27 40 -52 40z" />
    <glyph glyph-name="d" unicode="d" horiz-adv-x="496" 
d="M409 387c-138 0 -199 -210 -199 -269v-8c0 -47 20 -72 63 -72c35 0 88 40 97 64l79 185c5 12 8 23 9 35v8c0 32 -16 57 -49 57zM111 89c0 122 142 326 308 326c32 0 45 -15 67 -41l83 196c9 21 16 39 17 52c1 12 -3 19 -16 20l91 43h1c13 0 21 -8 21 -25
c0 -11 -3 -26 -11 -45l-222 -523c-3 -8 -5 -15 -5 -21c0 -20 15 -29 32 -29h4l-108 -56h-2c-15 0 -28 16 -28 39c0 9 3 21 8 32c-45 -42 -92 -71 -132 -71c-61 0 -108 35 -108 103z" />
    <glyph glyph-name="e" unicode="e" horiz-adv-x="413" 
d="M204 130c0 -33 9 -82 85 -82c26 0 71 4 109 16l5 -18c-67 -38 -119 -60 -184 -60c-58 1 -108 52 -108 121c0 87 115 308 317 308h2c40 0 75 -18 75 -53c0 -71 -105 -149 -290 -178c-8 -20 -11 -38 -11 -54zM252 266l-24 -46c142 39 183 65 198 133c2 5 3 9 3 13v1
c0 12 -7 21 -24 21c-38 0 -94 -27 -153 -122z" />
    <glyph glyph-name="f" unicode="f" horiz-adv-x="348" 
d="M377 400h114l-13 -32h-113l-162 -382c-90 -222 -225 -268 -318 -270c-55 0 -99 32 -125 84c46 -40 92 -50 117 -50c83 7 160 51 243 236l161 382h-65l14 32h64c69 157 181 285 287 285c55 -1 73 -20 73 -44c0 -3 0 -6 -1 -9c-7 -27 -35 -52 -61 -52l-41 27
c19 1 32 19 32 32c0 10 -14 17 -36 17c-41 0 -74 -29 -99 -88z" />
    <glyph glyph-name="g" unicode="g" horiz-adv-x="448" 
d="M388 363c-121 0 -207 -213 -214 -282c-1 -4 -1 -8 -1 -12c0 -39 22 -55 57 -55c46 0 101 52 122 100l78 185c2 4 3 9 3 16c0 22 -16 48 -45 48zM123 110c11 112 114 305 257 305c38 0 60 -29 69 -71c14 38 59 71 81 71h2l46 -37h-1h-3c-21 0 -34 -22 -53 -69l-150 -353
c-78 -190 -236 -238 -359 -240c-97 4 -139 44 -164 84c53 -29 110 -49 150 -49h2c107 10 219 57 304 250l11 26c-43 -26 -68 -41 -99 -41c-60 0 -94 39 -94 104c0 7 1 13 1 20z" />
    <glyph glyph-name="h" unicode="h" horiz-adv-x="467" 
d="M285 300l-84 -200c-13 -28 -18 -48 -18 -60s5 -18 13 -20l-71 -34c-20 0 -32 8 -32 30c0 18 8 45 24 84l200 473c9 22 15 40 15 53s-6 21 -17 21l94 38c13 -5 21 -11 21 -26c0 -11 -4 -24 -12 -44l-120 -284c54 63 104 84 153 84h3c46 0 75 -23 75 -70
c0 -23 -8 -53 -23 -89l-66 -156c-10 -27 -17 -47 -17 -60c0 -12 6 -18 16 -20l-80 -34c-18 1 -28 13 -28 36c0 19 7 45 21 78l65 155c12 27 18 50 20 69v8c0 24 -10 38 -33 38c-26 0 -75 -21 -119 -70z" />
    <glyph glyph-name="i" unicode="i" horiz-adv-x="234" 
d="M401 674c23 0 35 -14 35 -34c0 -37 -44 -82 -85 -82c-20 0 -33 14 -33 34c0 35 42 82 83 82zM304 345l-111 -261c-6 -16 -10 -29 -10 -38c0 -15 8 -24 23 -26l-82 -34c-18 1 -30 12 -30 36c0 16 6 37 17 65l88 209c15 30 20 49 20 61c0 13 -5 19 -14 25l88 33
c12 -1 19 -14 19 -33c0 -11 -2 -23 -8 -37z" />
    <glyph glyph-name="j" unicode="j" horiz-adv-x="253" 
d="M418 674c21 0 35 -14 35 -34c0 -37 -44 -82 -85 -82c-21 0 -33 12 -33 30c0 35 39 86 83 86zM312 415c12 -1 19 -11 19 -28c0 -11 -3 -26 -9 -42l-136 -321c-120 -278 -216 -306 -384 -308c-66 0 -156 24 -195 84c36 -25 132 -49 185 -49h8c134 9 211 57 283 228l132 313
c6 16 11 30 12 42v6c0 15 -6 24 -21 24z" />
    <glyph glyph-name="k" unicode="k" horiz-adv-x="434" 
d="M615 -286c-175 0 -359 219 -359 441c0 12 0 23 2 34c0 15 2 29 4 43l-55 -132c-11 -28 -19 -49 -20 -62c-1 -12 2 -18 12 -18h2l-68 -34c-17 0 -29 12 -29 37c0 19 6 44 20 77l195 464c15 34 19 53 19 65c0 13 -5 16 -15 17l89 38c16 -1 24 -10 24 -27
c0 -11 -4 -25 -11 -42l-156 -368c90 102 183 168 245 168h3h4c23 0 43 -15 43 -39c0 -4 -1 -8 -2 -13c-14 -30 -38 -49 -63 -49l-22 27c13 2 22 16 31 38c-57 -2 -126 -57 -184 -121c-2 -11 -4 -22 -5 -33s-1 -22 -1 -32c0 -234 219 -445 335 -445c37 0 81 13 158 52
c-52 -45 -82 -86 -196 -86z" />
    <glyph glyph-name="l" unicode="l" horiz-adv-x="231" 
d="M416 615l-225 -531c-7 -16 -11 -29 -11 -38c0 -15 8 -24 24 -26l-82 -34c-19 1 -30 12 -30 36c0 16 5 37 17 65l201 477c14 33 20 56 20 70c0 11 -4 16 -13 16h-2l89 35c14 -1 22 -9 22 -27c0 -11 -4 -25 -10 -43z" />
    <glyph glyph-name="m" unicode="m" horiz-adv-x="695" 
d="M136 -14c-26 0 -33 18 -33 36c0 16 6 37 17 65l89 209c14 30 20 49 20 61c0 13 -6 19 -15 25l89 33c6 -1 20 -8 20 -30c0 -10 -3 -23 -10 -40l-11 -25c37 48 84 95 142 95h5c36 0 77 -26 77 -78c0 -8 -1 -16 -3 -25c53 60 106 103 148 103h7c36 0 76 -26 76 -77
c0 -18 -5 -38 -15 -61l-82 -193c-6 -16 -10 -29 -10 -39c0 -15 8 -23 23 -25l-82 -34c-18 1 -30 12 -30 36c0 16 6 37 17 65l81 190c7 16 10 30 11 44v8c0 28 -13 46 -33 46h-3c-33 -1 -92 -61 -123 -107l-78 -184c-8 -18 -11 -33 -11 -43c0 -12 5 -19 16 -21
c-10 -12 -46 -34 -72 -34c-15 0 -33 7 -33 37c0 15 6 37 17 64l80 190c7 16 11 31 11 44c1 3 1 6 1 8c0 28 -13 46 -33 46h-2c-46 0 -117 -89 -128 -117l-74 -174c-8 -18 -11 -33 -11 -42c0 -13 5 -20 17 -22c-10 -12 -46 -34 -72 -34z" />
    <glyph glyph-name="n" unicode="n" horiz-adv-x="461" 
d="M129 -14c-26 0 -33 18 -33 36c0 16 6 37 17 65l89 209c14 30 20 49 20 61c0 13 -6 19 -15 25l89 33c7 -1 20 -8 20 -30c0 -10 -3 -23 -10 -40l-11 -25c37 48 84 95 142 95h6c37 0 76 -25 76 -77c0 -17 -5 -38 -15 -61l-82 -193c-7 -16 -10 -29 -10 -38
c0 -15 8 -24 23 -26l-81 -34c-19 1 -31 12 -31 36c0 16 6 37 17 65l80 190c8 16 11 31 12 44v8c0 28 -12 46 -33 46h-2c-46 0 -117 -89 -128 -117l-74 -174c-8 -18 -11 -33 -11 -42c0 -13 5 -20 17 -22c-10 -12 -46 -34 -72 -34z" />
    <glyph glyph-name="o" unicode="o" 
d="M115 108c0 106 115 307 310 307c74 0 131 -39 131 -115c0 -122 -142 -314 -313 -314c-72 0 -128 43 -128 122zM258 20c77 0 206 146 206 270c0 4 1 7 1 11c0 48 -19 80 -54 80c-83 0 -208 -153 -208 -271v-10c0 -48 18 -80 55 -80z" />
    <glyph glyph-name="p" unicode="p" horiz-adv-x="452" 
d="M235 14c139 0 200 210 200 269v8c0 47 -20 72 -63 72c-36 0 -87 -40 -97 -64l-78 -185c-6 -12 -9 -25 -10 -36c-1 -3 -1 -6 -1 -8c0 -31 16 -56 49 -56zM533 311c0 -123 -143 -325 -308 -325c-32 0 -45 15 -65 41l-83 -196c-10 -22 -17 -39 -19 -52c-1 -12 4 -19 16 -20
l-90 -43h-2c-13 0 -20 8 -20 23c0 12 4 27 11 47l293 687c4 13 7 22 7 29c0 9 -5 12 -16 12h-6l81 42h1c15 0 29 -16 29 -39c0 -4 0 -9 -1 -13l-67 -160c44 42 92 71 131 71c61 0 108 -35 108 -104z" />
    <glyph glyph-name="q" unicode="q" horiz-adv-x="491" 
d="M410 363c-127 0 -219 -202 -219 -286c0 -45 23 -63 62 -63c46 0 102 52 123 100l78 185c2 4 3 9 3 15c0 23 -17 49 -47 49zM123 110c0 112 109 305 278 305c41 0 63 -29 72 -71c15 38 58 71 80 71h2l43 -35h-3c-19 0 -28 -15 -44 -49l-230 -545c-20 -46 -46 -70 -67 -70
h-2l-54 43c27 2 42 30 58 72l83 196c-43 -26 -68 -41 -102 -41c-67 0 -114 47 -114 124z" />
    <glyph glyph-name="r" unicode="r" horiz-adv-x="364" 
d="M209 382l84 33c13 0 24 -8 24 -29c0 -10 -3 -24 -10 -41c38 27 110 70 158 70h5c-1 -4 -1 -8 -1 -11c0 -24 9 -41 28 -44l-79 -48c-15 0 -23 12 -23 30c0 9 2 19 7 30h-3c-34 0 -103 -62 -132 -122l-71 -166c-6 -16 -9 -29 -9 -38c0 -15 6 -24 23 -26l-82 -34
c-19 1 -30 12 -30 36c0 16 4 37 17 65l88 209c13 30 19 49 19 61c0 13 -5 19 -13 25z" />
    <glyph glyph-name="s" unicode="s" horiz-adv-x="388" 
d="M166 268c0 29 48 147 207 147h8h6c31 0 88 -14 97 -53l-97 -50c5 12 7 23 7 33c0 28 -16 47 -39 47h-2c-72 0 -108 -58 -108 -80c0 -58 149 -75 149 -175c0 -14 -4 -29 -11 -44c-29 -73 -96 -107 -197 -107c-59 0 -121 13 -121 49c0 4 1 8 3 13c19 40 51 56 104 62
c-18 -16 -26 -32 -26 -45c0 -16 13 -43 54 -45c83 0 111 45 111 75c0 32 -29 63 -60 85c-41 26 -85 50 -85 88z" />
    <glyph glyph-name="t" unicode="t" horiz-adv-x="267" 
d="M322 400h87l-14 -32h-86l-100 -236c-16 -42 -23 -70 -23 -87c0 -19 9 -25 24 -25l-84 -34c-20 1 -31 15 -31 40c0 22 8 52 24 91l139 327c12 24 19 42 19 54c0 11 -6 17 -16 18l87 40c13 0 22 -8 22 -26c0 -12 -4 -28 -14 -50z" />
    <glyph glyph-name="u" unicode="u" horiz-adv-x="462" 
d="M306 345l-97 -229c-6 -15 -9 -28 -10 -39c0 -2 -1 -4 -1 -6c0 -27 17 -39 43 -39h8c19 0 86 40 103 83l77 181c14 30 20 49 21 61c1 13 -3 19 -10 25l84 33c11 -9 18 -19 18 -34c0 -10 -2 -21 -9 -36l-111 -261c-7 -16 -9 -29 -9 -38c0 -15 7 -24 22 -26l-81 -34
c-18 1 -29 13 -29 37c0 10 2 22 6 37c-40 -33 -96 -74 -130 -74h-7c-38 0 -81 25 -81 77c0 16 5 35 14 56l75 177c14 30 20 48 20 61s-6 19 -16 25l91 33c10 -8 16 -21 16 -38c0 -9 -2 -20 -7 -32z" />
    <glyph glyph-name="v" unicode="v" horiz-adv-x="425" 
d="M466 498c22 24 41 35 68 37c19 -1 68 -8 68 -53c0 -4 0 -8 -1 -13c-8 -18 -25 -42 -49 -71l-280 -362c-24 -33 -46 -50 -50 -50v10c1 13 4 28 5 44c1 6 1 13 1 20l-2 210c-2 58 -4 105 -37 108l100 37c16 0 20 -29 20 -61c0 -12 0 -23 -1 -34l-5 -206l222 300
c16 19 17 30 17 34c0 32 -18 52 -57 52c-5 0 -11 -1 -19 -2z" />
    <glyph glyph-name="w" unicode="w" horiz-adv-x="609" 
d="M648 498c28 28 46 37 71 37c23 -1 48 -28 48 -65c0 -22 -9 -47 -30 -72l-280 -362c-25 -33 -45 -50 -49 -50v10c2 13 4 28 6 44v20l5 163l-146 -187c-25 -33 -47 -50 -49 -50v10c0 13 3 28 5 44c0 6 1 13 1 20v210c-2 58 -4 105 -37 108l100 37c15 0 20 -27 20 -57
c0 -13 -1 -26 -2 -38l-8 -206l119 150v2c0 14 2 38 2 60c0 26 -4 50 -21 52l81 37c8 0 11 -41 11 -93c0 -83 -6 -194 -7 -208l223 300c7 13 11 25 11 34c0 20 -18 50 -74 50z" />
    <glyph glyph-name="x" unicode="x" horiz-adv-x="447" 
d="M288 160c-80 -87 -161 -174 -204 -174c-27 0 -43 15 -43 33v3l67 56l15 -28c16 0 98 64 161 142l-20 133c-7 27 -32 59 -61 60l101 30c25 -3 34 -105 39 -161c75 74 145 161 195 161c16 0 25 -10 25 -27v-5c-1 -7 -3 -15 -6 -23c-10 -22 -27 -38 -46 -40l-11 33
c2 3 3 6 3 8c1 4 -2 6 -10 7c-19 -6 -93 -88 -148 -147c15 -181 89 -469 176 -469c6 -1 12 -1 19 -1c38 0 99 10 159 49c-63 -56 -104 -84 -191 -84h-8h-2c-147 0 -200 310 -210 444z" />
    <glyph glyph-name="y" unicode="y" horiz-adv-x="406" 
d="M440 379c8 9 29 36 74 36c17 0 24 -13 24 -28c0 -10 -3 -21 -8 -30l-307 -369c-51 -66 -195 -272 -283 -272c-27 2 -48 10 -99 80c37 -33 59 -39 92 -39c8 0 14 1 21 1h1c45 0 186 164 241 244l19 352c0 14 -8 24 -20 26l78 35c10 0 14 -19 14 -43c0 -13 -1 -27 -3 -40
c0 -4 0 -8 -1 -12l-16 -230l207 256c1 4 2 8 2 12c0 13 -10 22 -27 22c-3 0 -6 -1 -9 -1z" />
    <glyph glyph-name="z" unicode="z" horiz-adv-x="419" 
d="M310 415c73 -5 74 -42 93 -42c9 0 21 7 45 27h110l-13 -30l-366 -326c76 -28 177 -288 274 -292c6 -1 13 -2 21 -2c39 0 93 13 131 50c-55 -72 -89 -84 -151 -84h-14c-138 2 -251 284 -317 284h-76l12 30l366 328c-13 -9 -22 -12 -31 -12c-16 0 -24 10 -32 20
c-8 9 -15 19 -29 19h-1c-27 0 -55 -26 -55 -43c0 -8 6 -14 23 -15l-59 -37h-1c-30 0 -45 21 -45 44c0 27 20 77 115 81z" />
    <glyph glyph-name="braceleft" unicode="{" horiz-adv-x="264" 
d="M180 -181c-83 2 -124 16 -124 65c0 20 7 44 19 75l75 177c11 25 16 45 16 60c0 27 -17 41 -52 54c79 21 103 47 132 113l75 178c46 109 106 135 206 139h18l-5 -11c-78 -18 -113 -52 -143 -123l-71 -168c-44 -104 -57 -94 -149 -129c46 -13 62 -30 62 -54
c0 -19 -9 -43 -22 -74l-71 -168c-11 -27 -17 -48 -17 -65c0 -31 19 -47 56 -58z" />
    <glyph glyph-name="bar" unicode="|" horiz-adv-x="251" 
d="M265 -14h-66v689h66v-689z" />
    <glyph glyph-name="braceright" unicode="}" horiz-adv-x="270" 
d="M323 661l-22 8l5 11c85 -1 125 -16 125 -63c0 -20 -7 -45 -21 -77l-74 -177c-10 -26 -16 -46 -16 -61c0 -27 17 -41 53 -52c-81 -23 -106 -49 -133 -114l-76 -178c-46 -109 -105 -135 -205 -139h-18l5 11c78 18 113 52 143 123l71 168c36 85 69 110 148 129
c-42 12 -60 26 -60 54c0 18 7 41 21 74l71 168c11 26 17 48 17 65c0 16 -5 28 -13 36z" />
    <glyph glyph-name="asciitilde" unicode="~" horiz-adv-x="480" 
d="M266 320c38 0 60 -17 80 -34c21 -17 40 -34 71 -34c28 0 51 18 79 51h70c-11 -49 -113 -117 -154 -117h-2c-38 0 -61 17 -81 34c-21 17 -40 34 -72 34c-24 0 -45 -20 -57 -52h-69c30 76 99 118 135 118z" />
    <glyph glyph-name="uni00A0" unicode="&#xa0;" horiz-adv-x="250" 
 />
    <glyph glyph-name="exclamdown" unicode="&#xa1;" horiz-adv-x="261" 
d="M-3 -189c0 27 22 68 32 88l207 383h13l-38 -108c-36 -107 -73 -260 -95 -314c-21 -48 -50 -78 -86 -78c-21 0 -33 10 -33 29zM241 393c0 15 11 71 80 76c21 0 37 -11 37 -31c0 -30 -38 -76 -83 -76c-21 0 -34 11 -34 31z" />
    <glyph glyph-name="cent" unicode="&#xa2;" horiz-adv-x="444" 
d="M214 206c-11 -27 -17 -51 -19 -71v-9c0 -33 12 -56 32 -68l135 320c-55 -20 -110 -76 -148 -172zM549 347c0 -37 -32 -76 -69 -79c-24 0 -47 6 -47 24c0 1 1 1 1 2c18 0 39 28 39 48v4c-1 19 -19 33 -42 38l-143 -336c39 0 91 4 124 16l1 -18c-36 -22 -92 -48 -149 -57
l-38 -89h-65l38 88c-49 8 -87 54 -87 121c0 24 6 52 19 81c51 121 145 201 246 220l38 90h65l-36 -85c57 -3 105 -24 105 -68z" />
    <glyph glyph-name="sterling" unicode="&#xa3;" horiz-adv-x="491" 
d="M154 94c-56 0 -71 -36 -71 -53c0 -13 9 -21 29 -21c37 0 86 46 86 58c0 6 -14 16 -44 16zM713 613c0 -36 -32 -83 -79 -83c-27 0 -36 12 -36 30c0 6 1 13 3 20c26 2 40 38 40 47c0 14 -24 22 -45 22c-52 -1 -105 -73 -139 -139c-12 -29 -16 -48 -36 -110h104l-19 -45
h-100c-21 -73 -93 -187 -141 -244c47 -22 69 -55 107 -55c44 0 105 36 151 69l-12 -27c-48 -54 -131 -105 -180 -106c-55 0 -78 29 -109 62c-56 -46 -91 -62 -121 -62c-31 0 -48 11 -48 33c0 39 46 105 130 105c15 0 28 -2 42 -5c34 61 76 155 90 230h-117l19 45h99
c49 118 180 276 304 276c53 0 93 -23 93 -63z" />
    <glyph glyph-name="currency" unicode="&#xa4;" horiz-adv-x="705" 
d="M449 481c-81 0 -158 -61 -158 -153c0 -79 68 -149 155 -149c82 0 154 63 154 152c0 77 -63 150 -151 150zM212 58l-53 50l103 96c-28 39 -42 81 -43 126c0 46 16 88 44 126l-102 98l51 48l102 -96c44 24 89 39 132 39c49 0 93 -13 132 -39l103 96l51 -48l-102 -98
c24 -40 41 -80 41 -121v-4v-4c0 -42 -16 -83 -41 -123l100 -96l-50 -50l-103 98c-40 -27 -85 -41 -132 -41c-45 0 -89 14 -133 41z" />
    <glyph glyph-name="yen" unicode="&#xa5;" horiz-adv-x="582" 
d="M329 316h71l-22 170c-15 86 -37 155 -84 157l116 43c41 -4 46 -44 54 -117l41 -222l225 226c28 29 38 45 38 54c0 13 -18 13 -32 15l98 43c16 -1 23 -6 23 -14c0 -29 -67 -92 -120 -142l-216 -213h73l-29 -66h-80l-26 -64h81l-29 -66h-81l-4 -11
c-37 -89 -85 -123 -118 -123c-29 0 -49 12 -65 34c28 0 49 4 86 100h-82l27 66h83l27 64h-84z" />
    <glyph glyph-name="brokenbar" unicode="&#xa6;" horiz-adv-x="259" 
d="M281 400h-56l1 276h69zM271 -14h-69l13 276h57z" />
    <glyph glyph-name="section" unicode="&#xa7;" horiz-adv-x="400" 
d="M574 612c0 -16 -11 -81 -81 -87c-17 0 -27 8 -27 22v3c1 5 2 11 5 18c33 4 52 56 53 63v2c0 12 -14 22 -39 22c-66 0 -110 -56 -110 -105c0 -13 2 -26 7 -37l69 -113c24 -31 37 -63 37 -96c0 -82 -77 -179 -194 -179c27 -44 40 -72 40 -99c0 -66 -79 -174 -197 -174
c-48 0 -92 26 -92 68c0 39 35 86 84 86c19 0 31 -8 31 -23v-2c-1 -5 -2 -11 -5 -17c-26 -2 -56 -52 -56 -63c0 -15 17 -28 48 -28c70 0 115 65 115 109v1c0 34 -19 58 -36 82c-52 60 -79 112 -79 162c0 85 84 178 177 178c8 0 15 0 20 -1c-29 43 -44 72 -44 101
c0 64 76 171 191 171c45 0 83 -24 83 -64zM314 146c39 0 100 38 100 96c0 65 -57 141 -94 141c-61 0 -104 -61 -104 -105c0 -37 51 -127 98 -132z" />
    <glyph glyph-name="dieresis" unicode="&#xa8;" horiz-adv-x="420" 
d="M509 571c0 32 35 71 74 71c19 0 33 -12 33 -31c0 -32 -38 -68 -75 -68c-19 0 -32 10 -32 28zM309 571c0 31 36 71 75 71c19 0 33 -12 33 -31c0 -32 -38 -68 -75 -68c-20 0 -33 10 -33 28z" />
    <glyph glyph-name="copyright" unicode="&#xa9;" horiz-adv-x="539" 
d="M402 691c-102 0 -186 -95 -186 -204c0 -106 80 -196 177 -196c99 0 180 93 183 200v2c0 104 -77 197 -174 198zM404 719c112 0 204 -99 207 -220l-1 -9c-2 -124 -97 -224 -218 -226c-123 0 -210 105 -211 226c2 127 102 229 223 229zM489 436h10l-11 -51
c-2 -5 -34 -19 -87 -19c-72 0 -125 44 -125 120c0 2 1 3 1 5c0 77 55 133 140 133c20 0 75 -8 75 -26l-1 -46h-10c-5 39 -28 58 -67 58c-71 0 -88 -63 -88 -120c0 -69 28 -111 85 -111c38 0 62 20 78 57z" />
    <glyph glyph-name="ordfeminine" unicode="&#xaa;" horiz-adv-x="350" 
d="M252 356c35 0 47 -9 60 -18s28 -18 67 -18c35 0 66 10 109 42c-54 -78 -108 -90 -158 -90c-24 0 -41 9 -58 18c-18 9 -35 18 -62 18c-20 0 -40 -5 -62 -16c23 30 61 60 104 64zM439 551c-76 -28 -112 -49 -112 -87c0 -13 6 -23 20 -23s49 8 59 33zM330 595
c0 32 53 81 132 81c43 0 68 -16 68 -49c0 -13 -4 -29 -11 -47l-49 -115c-4 -12 -6 -21 -6 -27c0 -5 2 -8 4 -8c9 0 20 4 33 12l-7 -18c-29 -20 -53 -30 -72 -30s-28 8 -28 23v2c0 2 0 4 1 7l2 12c-39 -29 -71 -44 -96 -44c-29 0 -48 13 -48 39c0 8 1 18 6 29
c24 56 89 80 189 114l14 30c3 9 5 17 5 23v2c0 11 -5 17 -19 17c-17 0 -42 -9 -48 -23c-2 -4 -7 -47 -49 -47c-12 0 -21 6 -21 17z" />
    <glyph glyph-name="guillemotleft" unicode="&#xab;" horiz-adv-x="437" 
d="M401 411c0 -11 -41 -59 -184 -187l4 -13c19 -79 26 -131 26 -155v-7c-1 -13 -7 -16 -12 -16c-8 0 1 1 -92 162l-20 27l90 59c5 3 11 8 21 14l38 23c108 83 100 90 126 98c1 0 3 -2 3 -5zM423 49c0 -13 -7 -16 -13 -16c-11 0 0 0 -98 162l-12 27l76 59c3 3 10 7 19 14
l31 23c126 83 114 90 145 98c4 0 7 -2 7 -6c0 -20 -140 -129 -203 -186l2 -13c32 -87 46 -141 46 -162z" />
    <glyph glyph-name="logicalnot" unicode="&#xac;" horiz-adv-x="606" 
d="M604 113h-61l1 223h-423l-1 55h485z" />
    <glyph glyph-name="uni00AD" unicode="&#xad;" horiz-adv-x="357" 
d="M99 246h316l-18 -70h-316z" />
    <glyph glyph-name="registered" unicode="&#xae;" horiz-adv-x="540" 
d="M298 606v10h111c42 0 72 -21 72 -60c0 -28 -14 -54 -52 -70l35 -52c16 -24 31 -42 46 -56v-5h-39c-20 0 -29 31 -74 107h-30v-70c0 -27 3 -23 31 -27l-1 -10h-101l1 10c30 4 29 2 30 31l1 159v9c0 22 -3 20 -30 24zM395 603h-26l-2 -111h26c18 0 45 8 45 60
c0 34 -14 51 -43 51zM402 719c120 0 210 -101 210 -229c0 -1 0 -2 -1 -3c-2 -119 -96 -219 -210 -223h-8c-123 0 -210 105 -211 226c3 129 103 226 220 229zM394 291c87 0 182 80 182 204c0 55 -17 102 -51 139l-20 19c-30 25 -65 38 -104 38c-100 0 -184 -95 -184 -204
c0 -106 80 -196 177 -196z" />
    <glyph glyph-name="macron" unicode="&#xaf;" horiz-adv-x="472" 
d="M315 567l27 63h328l-27 -63h-328z" />
    <glyph glyph-name="macron" unicode="&#x2c9;" horiz-adv-x="472" 
d="M315 567l27 63h328l-27 -63h-328z" />
    <glyph glyph-name="degree" unicode="&#xb0;" horiz-adv-x="349" 
d="M358 642c-66 0 -109 -55 -110 -109c0 -55 41 -109 97 -109c57 0 110 42 110 109c0 55 -41 109 -97 109zM358 676c73 0 138 -60 138 -144c0 -76 -63 -142 -153 -142c-68 0 -135 59 -135 143c0 77 60 143 150 143z" />
    <glyph glyph-name="plusminus" unicode="&#xb1;" horiz-adv-x="570" 
d="M575 326h-204v-218h-60l1 218h-209l1 58h209v207h61v-207h201v-58zM576 0h-471v57h471v-57z" />
    <glyph glyph-name="uni00B2" unicode="&#xb2;" horiz-adv-x="315" 
d="M174 378l6 24c31 110 240 233 271 342c4 14 5 23 5 28c0 28 -17 41 -42 41c-36 0 -66 -21 -85 -56l-50 -1c26 51 78 82 135 82s85 -31 85 -79c0 -10 -1 -21 -4 -32c-17 -63 -241 -237 -256 -301h187l-4 -48h-248z" />
    <glyph glyph-name="uni00B3" unicode="&#xb3;" horiz-adv-x="310" 
d="M274 393c66 1 109 59 123 108c4 18 6 33 6 47c0 48 -28 73 -91 74l7 25h3c50 0 98 17 121 95c3 10 4 19 4 26c0 29 -16 45 -49 45c-37 0 -70 -21 -80 -61c0 -1 -1 -2 -1 -3h-45c23 52 77 89 137 89c50 0 84 -28 84 -71c0 -8 -1 -16 -3 -25l-2 -8c-13 -47 -52 -79 -90 -98
c38 -12 64 -37 64 -85c0 -13 -2 -28 -6 -45c-25 -91 -118 -137 -195 -137c-56 0 -92 29 -92 79v2l50 -1c0 -35 19 -56 55 -56z" />
    <glyph glyph-name="acute" unicode="&#xb4;" horiz-adv-x="294" 
d="M519 662c-51 -24 -108 -113 -130 -129c-17 -13 -38 -20 -58 -20c-16 0 -39 10 -48 20c37 2 110 127 147 129h89z" />
    <glyph glyph-name="uni00B5" unicode="&#xb5;" horiz-adv-x="459" 
d="M90 -234c-32 -39 -71 -50 -85 -50c-21 0 -29 19 -29 39c0 9 2 17 4 25l218 516c14 30 20 48 20 61s-6 19 -15 25c31 22 63 32 90 33c11 -8 16 -21 16 -38c0 -9 -2 -20 -6 -32l-97 -229c-7 -15 -10 -28 -11 -39c0 -2 -1 -4 -1 -6c0 -27 17 -39 43 -39h9c19 0 85 40 102 83
l77 181c14 30 20 49 21 61c1 13 -3 19 -9 25c25 18 57 32 83 33c12 -9 18 -19 18 -34c0 -10 -2 -21 -8 -36l-112 -261c-6 -16 -9 -29 -9 -38c0 -15 8 -24 23 -26c-10 -12 -53 -34 -79 -34c-14 0 -31 7 -31 37c0 10 2 22 5 37c-40 -33 -96 -74 -130 -74c-20 2 -33 4 -39 18
l-75 -178c-8 -18 -11 -32 -11 -39c0 -12 5 -19 18 -21z" />
    <glyph glyph-name="paragraph" unicode="&#xb6;" horiz-adv-x="543" 
d="M399 295l147 345c-122 -8 -176 -43 -226 -159c-18 -43 -26 -77 -26 -104c0 -5 0 -10 1 -14c6 -43 40 -63 104 -68zM391 273c-127 2 -174 38 -174 99c0 28 9 63 26 105c56 132 146 185 326 185h238l-9 -19c-82 -8 -96 -20 -125 -90l-272 -595c-10 -26 -17 -44 -17 -57
c0 -23 20 -29 67 -33l-10 -22h-153l356 794h-33l-376 -794h-154l10 22c81 6 95 15 131 101z" />
    <glyph glyph-name="periodcentered" unicode="&#xb7;" horiz-adv-x="192" 
d="M175 310c28 0 58 -20 58 -57c-1 -26 -20 -54 -59 -54c-26 0 -58 19 -58 52c0 36 27 59 59 59z" />
    <glyph glyph-name="periodcentered" unicode="&#x2219;" horiz-adv-x="192" 
d="M175 310c28 0 58 -20 58 -57c-1 -26 -20 -54 -59 -54c-26 0 -58 19 -58 52c0 36 27 59 59 59z" />
    <glyph glyph-name="cedilla" unicode="&#xb8;" horiz-adv-x="255" 
d="M26 -192c52 0 81 38 81 64c0 19 -14 34 -33 34h-36l77 94h34l-52 -65c35 -1 60 -16 60 -47c0 -57 -59 -104 -151 -104c-21 0 -56 8 -56 27c0 10 19 49 53 49c11 0 18 -8 18 -17c0 -2 0 -5 -1 -7c-18 -3 -22 -19 -22 -20c0 -5 13 -8 28 -8z" />
    <glyph glyph-name="uni00B9" unicode="&#xb9;" horiz-adv-x="178" 
d="M260 774l116 64l12 -11l-100 -379l-2 -6c-1 -6 -2 -11 -2 -16c0 -16 8 -27 25 -28l-6 -20h-126l5 20c22 1 39 17 50 52l77 289c2 13 3 22 3 29s-1 10 -4 11l-45 -21z" />
    <glyph glyph-name="ordmasculine" unicode="&#xba;" horiz-adv-x="391" 
d="M284 356c35 0 47 -9 60 -18s27 -18 66 -18c35 0 67 10 110 42c-55 -78 -109 -90 -159 -90c-24 0 -41 9 -58 18s-34 18 -61 18c-20 0 -41 -5 -62 -16c23 30 61 60 104 64zM382 427c85 0 118 126 118 164v7c0 28 -12 45 -36 45h-1c-85 0 -117 -119 -117 -165
c0 -30 10 -51 36 -51zM266 475c0 80 91 201 221 201c57 0 91 -33 91 -80c0 -91 -114 -202 -218 -202c-56 0 -94 30 -94 81z" />
    <glyph glyph-name="guillemotright" unicode="&#xbb;" horiz-adv-x="438" 
d="M227 416c11 0 23 -28 28 -39c0 -9 42 -77 46 -82c3 -7 5 -11 8 -14l26 -59l-257 -183c-4 -4 -9 -6 -11 -6c-5 0 -8 2 -8 5c0 8 20 34 189 173l14 13l-33 93c-11 30 -17 54 -17 73c0 16 3 24 15 26zM401 416c10 0 16 -32 20 -39c0 -11 33 -74 41 -82c4 -7 7 -11 10 -14
l40 -59l-261 -183c-4 -4 -8 -6 -10 -6c-4 0 -6 1 -6 4c0 1 1 3 2 5c4 13 60 70 168 169l15 13l-25 93c-5 25 -8 45 -8 63v10c2 22 8 25 14 26z" />
    <glyph glyph-name="onequarter" unicode="&#xbc;" horiz-adv-x="805" 
d="M790 372c-77 -82 -171 -145 -246 -199h161zM758 173h59l-21 -49h-59l-35 -83c-2 -4 -3 -7 -3 -10c-2 -10 3 -16 13 -16c-14 -17 -35 -28 -57 -28c-11 0 -17 6 -17 17c0 2 0 4 1 6c1 6 3 12 5 19l40 95h-203l18 42c83 56 296 218 323 282h52zM331 623l125 64l12 -11
l-162 -379l-2 -6c-2 -6 -3 -11 -4 -16v-7c1 -12 9 -20 27 -21l-8 -20h-134l8 20c23 1 42 18 57 52l123 289c5 13 8 22 9 29s0 10 -4 11l-47 -21v16zM940 672l-785 -707l-15 22l782 705z" />
    <glyph glyph-name="onehalf" unicode="&#xbd;" horiz-adv-x="653" 
d="M392 0l11 24c46 110 244 233 290 342c4 9 7 17 8 24c1 3 2 6 2 9v5c0 21 -12 31 -31 31c-28 0 -56 -21 -77 -56l-39 -1c30 51 78 81 121 81c45 0 71 -24 71 -64c0 -4 -1 -9 -1 -14c-2 -10 -5 -21 -11 -32c-44 -105 -217 -161 -272 -292l-1 -1h159l-14 -56h-216zM314 623
l126 64l11 -11l-161 -379l-2 -6c-3 -6 -5 -11 -6 -16c0 -2 -1 -5 -1 -7c-1 -12 3 -20 14 -21l-8 -20h-119l9 20c22 1 41 18 57 52l122 289c6 13 9 22 10 29s0 10 -4 11l-48 -21v16zM748 672l-610 -707l-16 23l615 704z" />
    <glyph glyph-name="threequarters" unicode="&#xbe;" horiz-adv-x="839" 
d="M838 372c-77 -82 -176 -149 -254 -199h170zM806 173h60l-21 -49h-60l-35 -83c-2 -4 -3 -7 -4 -10v-4c0 -7 5 -12 13 -12c-13 -17 -35 -28 -57 -28c-11 0 -16 6 -16 17v6c1 6 3 12 6 19l41 95h-203l18 42c84 50 295 218 322 282h52zM290 244c66 1 118 59 139 108
c6 18 12 33 14 47c1 6 1 11 1 16c0 37 -26 57 -81 58l12 25h2c51 0 101 17 136 95c4 10 7 19 9 26v10c0 22 -14 35 -43 35c-36 0 -73 -21 -90 -61l-1 -3h-45c32 52 91 89 151 89c45 0 74 -23 74 -59c0 -4 0 -8 -1 -12c-1 -8 -3 -16 -7 -25l-3 -8c-21 -47 -65 -79 -105 -98
c31 -10 52 -30 52 -67c0 -6 0 -12 -2 -18c-2 -13 -6 -28 -12 -45c-41 -91 -134 -138 -211 -138c-52 0 -88 25 -88 66c0 5 0 10 1 15h51c0 -4 -1 -8 -1 -12c0 -27 16 -44 48 -44zM999 672l-762 -707l-17 22l760 705z" />
    <glyph glyph-name="questiondown" unicode="&#xbf;" horiz-adv-x="440" 
d="M372 -37c0 -59 -95 -182 -232 -182c-69 0 -129 33 -129 98c0 17 4 36 12 57c63 148 237 186 309 357h36c-39 -89 -87 -130 -152 -206c-76 -87 -115 -163 -115 -209c0 -38 22 -67 67 -67c46 0 106 26 121 62c11 20 16 37 16 50s-6 22 -23 24c11 24 33 41 59 41
c21 0 31 -8 31 -25zM458 435c0 -31 -37 -77 -84 -77c-19 0 -33 11 -33 30v1c0 29 31 76 79 76c22 0 38 -10 38 -30z" />
    <glyph glyph-name="Agrave" unicode="&#xc0;" horiz-adv-x="570" 
d="M631 -220l-200 -64c-23 0 -32 29 -32 59v5l42 436h-199l-92 -117c-18 -19 -29 -41 -29 -56c0 -13 8 -23 28 -23c-11 -21 -56 -34 -76 -34h-3h-5c-19 0 -35 10 -35 25c0 3 1 6 2 9l434 546c10 15 26 55 26 64v4c0 9 -4 15 -11 17c27 26 54 34 89 34l-83 -849v-14
c0 -36 10 -54 53 -54c22 0 52 4 91 12zM475 532l-204 -275h177zM389 884h87c37 -2 111 -127 149 -129c-11 -10 -32 -20 -50 -20c-11 0 -34 2 -57 20c-23 16 -79 105 -129 129z" />
    <glyph glyph-name="Aacute" unicode="&#xc1;" horiz-adv-x="571" 
d="M633 -220l-201 -64c-23 0 -31 29 -31 59v5l42 436h-200l-92 -117c-17 -19 -28 -41 -28 -56c0 -13 7 -23 27 -23c-10 -21 -56 -34 -76 -34h-3h-4c-19 0 -36 10 -36 25c0 3 1 6 2 9l434 546c11 15 26 55 27 64v4c0 9 -5 15 -11 17c26 26 54 34 89 34l-84 -849v-14
c0 -36 11 -54 54 -54c21 0 52 4 91 12zM477 532l-204 -275h176zM692 884c-52 -24 -108 -113 -131 -129c-17 -13 -37 -20 -57 -20c-17 0 -38 10 -48 20c37 2 110 127 147 129h89z" />
    <glyph glyph-name="Acircumflex" unicode="&#xc2;" horiz-adv-x="571" 
d="M633 -220l-201 -64c-23 0 -31 29 -31 59v5l42 436h-200l-92 -117c-17 -19 -29 -41 -29 -56c0 -13 8 -23 28 -23c-10 -21 -56 -34 -76 -34h-3h-5c-19 0 -35 10 -35 25c0 3 1 6 2 9l434 546c11 15 26 55 27 64v4c0 9 -5 15 -12 17c27 26 55 34 90 34l-84 -849v-14
c0 -36 11 -54 53 -54c22 0 53 4 92 12zM477 532l-205 -275h177zM575 848c-31 -43 -77 -81 -119 -113h-76c64 46 129 106 169 149h74c31 -2 51 -127 87 -129c-13 -10 -38 -20 -56 -20c-21 0 -37 7 -50 20c-9 11 -16 58 -29 93z" />
    <glyph glyph-name="Atilde" unicode="&#xc3;" horiz-adv-x="572" 
d="M633 -220l-200 -64c-23 0 -31 29 -31 59v5l41 436h-199l-92 -117c-17 -19 -29 -41 -29 -56c0 -13 8 -23 28 -23c-11 -21 -56 -34 -76 -34h-3h-5c-19 0 -35 10 -35 25c0 3 1 6 2 9l434 546c11 15 26 55 27 64v4c0 9 -5 15 -12 17c27 26 55 34 90 34l-84 -849v-14
c0 -36 11 -54 53 -54c22 0 53 4 91 12zM478 532l-205 -275h177zM605 735c-51 0 -81 46 -113 46c-33 0 -70 -14 -113 -46c43 66 110 106 161 106c31 0 39 -11 58 -28c12 -11 33 -22 45 -22c36 0 73 10 126 50c-54 -78 -114 -106 -164 -106z" />
    <glyph glyph-name="Adieresis" unicode="&#xc4;" horiz-adv-x="571" 
d="M633 -220l-201 -64c-23 0 -31 29 -31 59v5l42 436h-200l-92 -117c-17 -19 -28 -41 -28 -56c0 -13 7 -23 27 -23c-10 -21 -56 -34 -76 -34h-3h-5c-18 0 -35 10 -35 25c0 3 1 6 2 9l434 546c11 15 26 55 27 64v4c0 9 -5 15 -11 17c26 26 54 34 89 34l-84 -849v-14
c0 -36 11 -54 54 -54c21 0 52 4 91 12zM477 532l-204 -275h176zM412 763c0 31 36 71 74 71c20 0 34 -12 34 -31c0 -32 -38 -68 -76 -68c-19 0 -32 10 -32 28zM610 763c0 32 36 71 74 71c20 0 35 -12 35 -31c0 -32 -38 -68 -76 -68c-19 0 -33 10 -33 28z" />
    <glyph glyph-name="Aring" unicode="&#xc5;" horiz-adv-x="571" 
d="M519 800c6 64 72 140 129 140c30 0 46 -19 46 -48v-9c-8 -69 -75 -142 -131 -142c-27 0 -44 19 -44 50v9zM577 775c41 0 81 49 85 90c1 2 1 5 1 7c0 19 -9 34 -29 34c-40 0 -81 -53 -86 -93v-6c0 -19 9 -32 29 -32zM633 -220l-201 -64c-22 0 -31 29 -31 59v5l42 436h-200
l-92 -117c-17 -19 -28 -41 -28 -56c0 -13 7 -23 27 -23c-10 -21 -56 -34 -76 -34h-3h-4c-19 0 -36 10 -36 25c0 3 1 6 2 9l434 546c11 15 26 55 27 64v4c0 9 -5 15 -11 17c26 26 54 34 89 34l-84 -849v-14c0 -36 11 -54 54 -54c21 0 52 4 91 12zM477 532l-204 -275h176z" />
    <glyph glyph-name="Ccedilla" unicode="&#xc7;" horiz-adv-x="598" 
d="M215 -192c42 0 68 41 68 68c0 17 -9 30 -22 30h-28l60 83c-88 14 -136 84 -136 187c0 47 12 100 37 158c92 218 292 344 433 351h15c74 0 101 -16 135 -44c17 -19 27 -37 27 -61c0 -49 -54 -121 -106 -123c-23 2 -39 15 -39 34c0 3 1 9 2 14c33 2 60 40 60 68
c0 4 -1 8 -2 11c-9 30 -20 61 -88 61h-6c-177 0 -347 -281 -355 -463c-1 -10 -2 -20 -2 -29c0 -69 28 -123 105 -123c50 0 82 3 148 39c1 3 3 8 3 14c0 9 -4 19 -19 19c9 26 42 48 69 48c21 -3 28 -17 28 -33c0 -85 -177 -131 -266 -131h-6c-4 0 -8 1 -11 1l-38 -52
c26 -1 43 -14 43 -40v-7c-5 -59 -58 -104 -127 -104c-16 0 -40 8 -40 25c0 13 20 51 44 51c8 0 14 -7 14 -15v-2c-1 -2 -1 -5 -2 -7c-15 -3 -19 -19 -19 -19v-1c0 -5 11 -8 21 -8z" />
    <glyph glyph-name="Egrave" unicode="&#xc8;" horiz-adv-x="555" 
d="M452 884h88c37 -2 111 -127 148 -129c-10 -10 -32 -20 -49 -20c-11 0 -34 2 -58 20c-22 16 -78 105 -129 129zM655 582c31 5 34 28 34 36c0 12 -23 19 -80 19h-16h-100c-27 0 -27 -8 -41 -34l-93 -222h63c64 0 81 12 127 95h23l-98 -232h-23c8 22 13 39 14 52v6
c0 30 -20 38 -59 38h-65l-109 -260c-8 -18 -11 -24 -11 -30c0 -13 17 -13 66 -13h22h5c128 0 150 34 209 103l40 -38c-29 -52 -71 -100 -110 -102h-354l-47 21c32 9 61 25 91 88l192 457c13 30 17 50 17 65c0 20 -9 30 -22 44h402c37 -2 54 -31 54 -60c0 -9 -2 -19 -5 -27
c-15 -31 -58 -53 -87 -56z" />
    <glyph glyph-name="Eacute" unicode="&#xc9;" horiz-adv-x="555" 
d="M746 884c-52 -24 -108 -113 -130 -129c-17 -13 -37 -20 -57 -20c-17 0 -39 10 -49 20c37 2 110 127 147 129h89zM655 582c31 5 34 28 34 36c0 12 -23 19 -80 19h-16h-100c-27 0 -27 -8 -41 -34l-93 -222h63c64 0 81 12 127 95h23l-98 -232h-23c8 22 13 39 14 52v6
c0 30 -20 38 -59 38h-65l-109 -260c-8 -18 -11 -24 -11 -30c0 -13 17 -13 66 -13h22h5c128 0 150 34 209 103l40 -38c-29 -52 -71 -100 -110 -102h-354l-47 21c32 9 61 25 91 88l192 457c13 30 17 50 17 65c0 20 -9 30 -22 44h402c37 -2 54 -31 54 -60c0 -9 -2 -19 -5 -27
c-15 -31 -58 -53 -87 -56z" />
    <glyph glyph-name="Ecircumflex" unicode="&#xca;" horiz-adv-x="555" 
d="M626 848c-31 -43 -77 -81 -119 -113h-76c64 46 130 106 169 149h75c30 -2 50 -127 86 -129c-12 -10 -38 -20 -56 -20c-21 0 -38 7 -49 20c-10 11 -17 58 -30 93zM655 582c31 5 34 28 34 36c0 12 -23 19 -80 19h-16h-100c-27 0 -27 -8 -41 -34l-93 -222h63
c64 0 81 12 127 95h23l-98 -232h-23c8 22 13 39 14 52v6c0 30 -20 38 -59 38h-65l-109 -260c-8 -18 -11 -24 -11 -30c0 -13 17 -13 66 -13h22h5c128 0 150 34 209 103l40 -38c-29 -52 -71 -100 -110 -102h-354l-47 21c32 9 61 25 91 88l192 457c13 30 17 50 17 65
c0 20 -9 30 -22 44h402c37 -2 54 -31 54 -60c0 -9 -2 -19 -5 -27c-15 -31 -58 -53 -87 -56z" />
    <glyph glyph-name="Edieresis" unicode="&#xcb;" horiz-adv-x="555" 
d="M657 763c0 32 37 71 75 71c20 0 34 -12 34 -31c0 -32 -38 -68 -76 -68c-19 0 -33 10 -33 28zM459 763c0 31 35 71 74 71c20 0 34 -12 34 -31c0 -32 -38 -68 -76 -68c-20 0 -32 10 -32 28zM655 582c31 5 34 28 34 36c0 12 -23 19 -80 19h-16h-100c-27 0 -27 -8 -41 -34
l-93 -222h63c64 0 81 12 127 95h23l-98 -232h-23c8 22 13 39 14 52v6c0 30 -20 38 -59 38h-65l-109 -260c-8 -18 -11 -24 -11 -30c0 -13 17 -13 66 -13h22h5c128 0 150 34 209 103l40 -38c-29 -52 -71 -100 -110 -102h-354l-47 21c32 9 61 25 91 88l192 457
c13 30 17 50 17 65c0 20 -9 30 -22 44h402c37 -2 54 -31 54 -60c0 -9 -2 -19 -5 -27c-15 -31 -58 -53 -87 -56z" />
    <glyph glyph-name="Igrave" unicode="&#xcc;" horiz-adv-x="260" 
d="M301 884h88c37 -2 111 -127 148 -129c-10 -10 -31 -20 -49 -20c-12 0 -34 2 -57 20c-23 16 -79 105 -130 129zM134 109l187 444c11 24 15 41 15 54c0 26 -17 34 -35 37l133 41c16 -1 24 -7 24 -24c0 -19 -11 -52 -35 -108l-187 -444c-14 -29 -18 -49 -18 -62
c0 -20 11 -26 27 -27l-93 -34c-20 0 -36 17 -36 51c0 19 5 43 18 72z" />
    <glyph glyph-name="Iacute" unicode="&#xcd;" horiz-adv-x="261" 
d="M592 884c-52 -24 -108 -113 -131 -129c-17 -13 -38 -20 -58 -20c-16 0 -39 10 -47 20c37 2 110 127 147 129h89zM136 109l187 444c10 24 14 41 14 54c0 26 -16 34 -34 37l133 41c15 -1 23 -7 23 -24c0 -19 -11 -52 -35 -108l-187 -444c-13 -29 -18 -49 -18 -62
c0 -20 12 -26 28 -27l-93 -34c-20 0 -37 17 -37 51c0 19 5 43 19 72z" />
    <glyph glyph-name="Icircumflex" unicode="&#xce;" horiz-adv-x="262" 
d="M470 848c-30 -43 -77 -81 -118 -113h-76c63 46 129 106 169 149h75c30 -2 50 -127 86 -129c-13 -10 -39 -20 -57 -20c-20 0 -37 7 -48 20c-11 11 -16 58 -31 93zM136 109l187 444c11 24 14 41 14 54c0 26 -16 34 -34 37l133 41c15 -1 24 -7 24 -24
c0 -19 -12 -52 -35 -108l-187 -444c-14 -29 -18 -49 -18 -62c0 -20 11 -26 27 -27l-93 -34c-20 0 -36 17 -36 51c0 19 5 43 18 72z" />
    <glyph glyph-name="Idieresis" unicode="&#xcf;" horiz-adv-x="262" 
d="M503 763c0 32 35 71 74 71c19 0 33 -12 33 -31c0 -32 -38 -68 -75 -68c-19 0 -32 10 -32 28zM303 763c0 31 36 71 75 71c19 0 34 -12 34 -31c0 -32 -38 -68 -76 -68c-20 0 -33 10 -33 28zM136 109l187 444c11 24 14 41 14 54c0 26 -16 34 -34 37l133 41
c15 -1 24 -7 24 -24c0 -19 -11 -52 -35 -108l-187 -444c-14 -29 -18 -49 -18 -62c0 -20 11 -26 27 -27l-93 -34c-20 0 -36 17 -36 51c0 19 5 43 18 72z" />
    <glyph glyph-name="Eth" unicode="&#xd0;" horiz-adv-x="624" 
d="M460 619l-10 -20l-101 -237h72l-27 -63h-72l-93 -221c-5 -10 -7 -18 -7 -24c0 -13 10 -17 29 -17c169 0 292 106 371 296c22 51 36 98 39 140c1 8 1 16 1 24c0 86 -46 141 -156 141c-22 0 -38 -6 -46 -19zM170 299l27 63h50l87 204c13 30 20 52 20 68c0 20 -11 32 -28 41
h218c146 0 220 -77 220 -201c0 -42 -11 -90 -33 -141c-96 -228 -295 -333 -463 -333h-228c48 18 77 44 101 109l80 190h-51z" />
    <glyph glyph-name="Ntilde" unicode="&#xd1;" horiz-adv-x="636" 
d="M677 735c-51 0 -82 46 -113 46c-33 0 -70 -14 -114 -46c43 66 109 106 161 106c32 0 39 -11 58 -28c13 -11 33 -22 46 -22c35 0 72 10 125 50c-54 -78 -114 -106 -163 -106zM750 515l-97 -229c-38 -90 -57 -151 -57 -186c0 -29 13 -42 36 -42l-122 -72l-113 553
l-167 -392c-47 -117 -95 -161 -114 -161c-31 0 -54 12 -59 34h4c37 0 82 25 126 127l180 425c1 3 2 7 2 10c0 23 -25 53 -50 58l112 45c32 -1 42 -35 48 -63l84 -446l143 339c16 36 22 60 24 77v8c0 29 -18 33 -33 40l83 45c7 -7 13 -16 13 -32c0 -25 -12 -65 -43 -138z" />
    <glyph glyph-name="Ograve" unicode="&#xd2;" horiz-adv-x="647" 
d="M522 884h88c37 -2 111 -127 148 -129c-10 -10 -31 -20 -49 -20c-12 0 -35 2 -57 20c-23 16 -79 105 -130 129zM339 22c177 0 343 346 351 495c0 9 1 17 1 25c0 77 -40 106 -85 107c-180 0 -340 -337 -348 -492c-1 -10 -2 -19 -2 -28c0 -68 29 -107 83 -107zM160 183
c0 214 233 502 461 502c101 0 167 -69 167 -192c0 -210 -234 -507 -467 -507c-96 0 -161 73 -161 197z" />
    <glyph glyph-name="Oacute" unicode="&#xd3;" horiz-adv-x="648" 
d="M793 884c-51 -24 -107 -113 -130 -129c-17 -13 -37 -20 -57 -20c-17 0 -39 10 -48 20c37 2 110 127 147 129h88zM339 22c177 0 343 346 351 495c0 9 1 17 1 25c0 77 -40 106 -85 107c-179 0 -340 -337 -348 -492c0 -10 -1 -19 -1 -28c0 -68 28 -107 82 -107zM161 183
c0 214 232 502 460 502c101 0 167 -69 167 -192c0 -210 -234 -507 -467 -507c-96 0 -160 73 -160 197z" />
    <glyph glyph-name="Ocircumflex" unicode="&#xd4;" horiz-adv-x="648" 
d="M671 848c-30 -43 -77 -81 -119 -113h-76c64 46 130 106 169 149h75c30 -2 50 -127 86 -129c-12 -10 -38 -20 -56 -20c-21 0 -37 7 -49 20c-10 11 -17 58 -30 93zM340 22c176 0 343 346 350 495c0 9 1 17 1 25c0 77 -40 106 -84 107c-180 0 -341 -337 -348 -492
c-1 -10 -2 -19 -2 -28c0 -68 28 -107 83 -107zM161 183c0 214 233 502 461 502c100 0 166 -69 166 -192c0 -210 -234 -507 -466 -507c-96 0 -161 73 -161 197z" />
    <glyph glyph-name="Otilde" unicode="&#xd5;" horiz-adv-x="649" 
d="M682 735c-52 0 -82 46 -113 46c-34 0 -71 -14 -113 -46c42 66 109 106 160 106c31 0 39 -11 58 -28c12 -11 33 -22 46 -22c35 0 72 10 125 50c-54 -78 -114 -106 -163 -106zM341 22c176 0 343 346 350 495c0 9 1 17 1 25c0 77 -40 106 -84 107
c-180 0 -341 -337 -348 -492c-1 -10 -2 -19 -2 -28c0 -68 28 -107 83 -107zM162 183c0 214 233 502 461 502c100 0 166 -69 166 -192c0 -210 -234 -507 -466 -507c-96 0 -161 73 -161 197z" />
    <glyph glyph-name="Odieresis" unicode="&#xd6;" horiz-adv-x="648" 
d="M340 22c176 0 343 346 350 495c0 9 1 17 1 25c0 77 -40 106 -84 107c-180 0 -340 -337 -348 -492c-1 -10 -2 -19 -2 -28c0 -68 29 -107 83 -107zM161 183c0 214 233 502 461 502c101 0 166 -69 166 -192c0 -210 -234 -507 -466 -507c-96 0 -161 73 -161 197zM705 763
c0 32 36 71 74 71c20 0 34 -12 34 -31c0 -32 -38 -68 -76 -68c-19 0 -32 10 -32 28zM506 763c0 31 36 71 74 71c20 0 34 -12 34 -31c0 -32 -38 -68 -76 -68c-19 0 -32 10 -32 28z" />
    <glyph glyph-name="multiply" unicode="&#xd7;" horiz-adv-x="598" 
d="M609 61l-44 -40l-196 200l-195 -200l-41 40l198 200l-196 200l41 39l195 -198l196 199l42 -38l-198 -202z" />
    <glyph glyph-name="Oslash" unicode="&#xd8;" horiz-adv-x="647" 
d="M160 182c0 214 232 503 461 503c22 0 44 -3 61 -10l95 125h78l-126 -157c33 -33 58 -84 58 -151c0 -206 -232 -506 -466 -506c-31 0 -57 8 -80 21l-83 -108h-78l123 148c-26 33 -43 79 -43 135zM637 338c31 75 48 134 51 179c1 8 2 17 2 24c0 17 -2 32 -5 44l-409 -533
c13 -20 35 -30 63 -30c127 0 241 181 298 316zM606 649c-179 0 -340 -336 -348 -491c-1 -10 -1 -19 -1 -28v-12l394 517c-13 9 -29 13 -45 14z" />
    <glyph glyph-name="Ugrave" unicode="&#xd9;" horiz-adv-x="619" 
d="M466 884h87c38 -2 112 -127 149 -129c-11 -10 -32 -20 -50 -20c-11 0 -34 2 -57 20c-23 16 -79 105 -129 129zM753 515l-110 -261c-81 -190 -188 -268 -321 -268c-92 0 -143 41 -143 124c0 36 11 79 32 131l133 312c10 25 14 41 14 53c0 27 -23 26 -37 34l119 45
c18 -1 29 -14 29 -39c0 -22 -8 -53 -24 -93l-135 -320c-21 -50 -33 -90 -36 -120c0 -5 -1 -9 -1 -14c0 -49 30 -69 85 -69c84 0 161 37 236 215l114 270c17 41 25 69 27 87v8c0 30 -18 30 -31 30l76 45c9 0 14 -10 14 -26c0 -29 -14 -80 -41 -144z" />
    <glyph glyph-name="Uacute" unicode="&#xda;" horiz-adv-x="619" 
d="M754 884c-51 -24 -107 -113 -130 -129c-17 -13 -37 -20 -57 -20c-17 0 -39 10 -49 20c37 2 111 127 148 129h88zM753 515l-110 -261c-81 -190 -188 -268 -321 -268c-92 0 -143 41 -143 124c0 36 11 79 32 131l133 312c10 25 14 41 14 53c0 27 -23 26 -37 34l119 45
c18 -1 29 -14 29 -39c0 -22 -8 -53 -24 -93l-135 -320c-21 -50 -33 -90 -36 -120c0 -5 -1 -9 -1 -14c0 -49 30 -69 85 -69c84 0 161 37 236 215l114 270c17 41 25 69 27 87v8c0 30 -18 30 -31 30l76 45c9 0 14 -10 14 -26c0 -29 -14 -80 -41 -144z" />
    <glyph glyph-name="Ucircumflex" unicode="&#xdb;" horiz-adv-x="619" 
d="M634 848c-30 -43 -77 -81 -119 -113h-76c64 46 130 106 170 149h74c30 -2 50 -127 86 -129c-12 -10 -38 -20 -56 -20c-21 0 -37 7 -49 20c-10 11 -16 58 -30 93zM753 515l-110 -261c-81 -190 -188 -268 -321 -268c-92 0 -143 41 -143 124c0 36 11 79 32 131l133 312
c10 25 14 41 14 53c0 27 -23 26 -37 34l119 45c18 -1 29 -14 29 -39c0 -22 -8 -53 -24 -93l-135 -320c-21 -50 -33 -90 -36 -120c0 -5 -1 -9 -1 -14c0 -49 30 -69 85 -69c84 0 161 37 236 215l114 270c17 41 25 69 27 87v8c0 30 -18 30 -31 30l76 45c9 0 14 -10 14 -26
c0 -29 -14 -80 -41 -144z" />
    <glyph glyph-name="Udieresis" unicode="&#xdc;" horiz-adv-x="619" 
d="M665 763c0 32 36 71 74 71c20 0 34 -12 34 -31c0 -32 -38 -68 -76 -68c-19 0 -32 10 -32 28zM466 763c0 31 36 71 74 71c20 0 34 -12 34 -31c0 -32 -38 -68 -76 -68c-19 0 -32 10 -32 28zM753 515l-110 -261c-81 -190 -188 -268 -321 -268c-92 0 -143 41 -143 124
c0 36 11 79 32 131l133 312c10 25 14 41 14 53c0 27 -23 26 -37 34l119 45c18 -1 29 -14 29 -39c0 -22 -8 -53 -24 -93l-135 -320c-21 -50 -33 -90 -36 -120c0 -5 -1 -9 -1 -14c0 -49 30 -69 85 -69c84 0 161 37 236 215l114 270c17 41 25 69 27 87v8c0 30 -18 30 -31 30
l76 45c9 0 14 -10 14 -26c0 -29 -14 -80 -41 -144z" />
    <glyph glyph-name="Yacute" unicode="&#xdd;" horiz-adv-x="547" 
d="M731 884c-51 -24 -107 -113 -130 -129c-17 -13 -37 -20 -57 -20c-17 0 -39 10 -48 20c37 2 110 127 147 129h88zM700 642l98 43c16 -1 23 -6 23 -14c0 -29 -67 -92 -120 -142l-194 -226l-81 -194c-37 -89 -86 -123 -119 -123l-65 34c28 0 49 4 86 100l74 174l-26 191
c-15 86 -36 155 -83 157l116 43c39 -4 44 -44 52 -117l21 -221l211 226c29 29 39 45 39 54c0 13 -19 13 -32 15z" />
    <glyph glyph-name="Thorn" unicode="&#xde;" horiz-adv-x="513" 
d="M642 426c0 -62 -61 -309 -371 -309h-65l-14 -33c-7 -19 -11 -33 -11 -43c0 -12 5 -19 16 -21l-74 -34c-24 2 -32 15 -32 33c0 28 19 67 32 98l190 449c13 33 20 55 20 68c0 11 -5 16 -14 16h-2l89 35c13 -1 22 -9 22 -27c0 -11 -4 -25 -11 -43l-22 -53h55
c128 0 192 -52 192 -136zM379 525l-150 -357c-3 -5 -4 -10 -4 -13c0 -11 11 -14 28 -14c146 0 223 70 276 195c15 34 23 66 23 94c0 4 1 8 1 12c0 58 -35 96 -132 96c-18 0 -34 -4 -42 -13z" />
    <glyph glyph-name="germandbls" unicode="&#xdf;" horiz-adv-x="468" 
d="M297 20c71 0 139 174 139 247c1 5 1 10 1 15c0 49 -23 74 -64 76l14 32h1c40 0 107 55 138 127c14 34 23 62 25 84v9c0 28 -12 43 -39 43c-50 0 -90 -50 -113 -103l-203 -480c-25 -54 -65 -84 -95 -84l-50 38c2 -1 5 -1 8 -1c20 0 43 22 60 61l157 371
c68 160 158 230 255 230c65 0 99 -37 99 -91c0 -19 -5 -41 -14 -63c-32 -75 -78 -107 -189 -154c72 -18 107 -59 107 -115c0 -114 -144 -276 -268 -276c-32 0 -52 17 -52 45v5c4 51 56 86 79 86l21 -40h-2c-13 0 -32 -15 -38 -32v-6c0 -14 13 -24 23 -24z" />
    <glyph glyph-name="agrave" unicode="&#xe0;" horiz-adv-x="491" 
d="M328 634h87c37 -2 111 -127 148 -129c-9 -10 -31 -20 -48 -20c-13 0 -35 2 -58 20c-23 16 -79 105 -129 129zM406 387c-138 0 -199 -210 -199 -269v-8c0 -47 20 -72 63 -72c35 0 88 40 97 64l79 185c5 12 8 23 9 35v8c0 32 -16 57 -49 57zM108 89c0 122 142 326 308 326
c26 0 42 -6 59 -21l69 21c14 -1 23 -9 23 -25c0 -11 -4 -26 -11 -45l-109 -253c-3 -8 -5 -16 -5 -23c0 -20 14 -31 30 -31h4l-106 -52h-2c-15 0 -28 16 -28 39c0 9 3 21 8 32c-45 -42 -92 -71 -132 -71c-61 0 -108 35 -108 103z" />
    <glyph glyph-name="aacute" unicode="&#xe1;" 
d="M616 634c-52 -24 -108 -113 -130 -129c-18 -13 -38 -20 -57 -20c-18 0 -40 10 -49 20c37 2 110 127 147 129h89zM408 387c-139 0 -200 -210 -200 -269v-8c0 -47 20 -72 63 -72c35 0 88 40 98 64l79 185c4 12 7 23 8 35v8c0 32 -16 57 -48 57zM109 89
c0 122 142 326 308 326c27 0 42 -6 59 -21l69 21c15 -1 23 -9 23 -25c0 -11 -4 -26 -11 -45l-109 -253c-2 -8 -4 -16 -4 -23c0 -20 13 -31 29 -31h4l-105 -52h-2c-16 0 -29 16 -29 39c0 9 3 21 9 32c-46 -42 -92 -71 -132 -71c-62 0 -109 35 -109 103z" />
    <glyph glyph-name="acircumflex" unicode="&#xe2;" 
d="M495 598c-30 -43 -77 -81 -118 -113h-76c63 46 129 106 169 149h75c30 -2 50 -127 86 -129c-13 -10 -39 -20 -57 -20c-20 0 -37 7 -48 20c-11 11 -16 58 -31 93zM408 387c-139 0 -199 -210 -199 -269v-8c0 -47 19 -72 62 -72c35 0 89 40 98 64l79 185c5 12 8 23 8 35v8
c0 32 -16 57 -48 57zM110 89c0 122 141 326 308 326c26 0 41 -6 58 -21l70 21c14 -1 23 -9 23 -25c0 -11 -4 -26 -12 -45l-108 -253c-3 -8 -5 -16 -5 -23c0 -20 13 -31 30 -31h3l-105 -52h-2c-15 0 -28 16 -28 39c0 9 2 21 8 32c-46 -42 -92 -71 -132 -71
c-62 0 -108 35 -108 103z" />
    <glyph glyph-name="atilde" unicode="&#xe3;" horiz-adv-x="494" 
d="M504 485c-50 0 -81 46 -113 46s-69 -14 -113 -46c43 66 109 106 160 106c32 0 39 -11 59 -28c13 -11 33 -22 45 -22c35 0 72 10 125 50c-54 -78 -114 -106 -163 -106zM409 387c-139 0 -200 -210 -200 -269v-8c0 -47 20 -72 63 -72c35 0 88 40 98 64l79 185
c5 12 7 23 8 35v8c0 32 -16 57 -48 57zM111 89c0 122 141 326 307 326c27 0 42 -6 59 -21l70 21c14 -1 23 -9 23 -25c0 -11 -4 -26 -12 -45l-108 -253c-3 -8 -5 -16 -5 -23c0 -20 13 -31 29 -31h4l-105 -52h-2c-15 0 -29 16 -29 39c0 9 3 21 9 32c-46 -42 -92 -71 -132 -71
c-62 0 -108 35 -108 103z" />
    <glyph glyph-name="adieresis" unicode="&#xe4;" 
d="M408 387c-139 0 -199 -210 -199 -269v-8c0 -47 20 -72 62 -72c35 0 89 40 98 64l79 185c5 12 8 23 9 35v8c0 32 -17 57 -49 57zM110 89c0 122 141 326 308 326c26 0 41 -6 59 -21l69 21c14 -1 23 -9 23 -25c0 -11 -4 -26 -12 -45l-108 -253c-3 -8 -5 -16 -5 -23
c0 -20 14 -31 30 -31h3l-105 -52h-2c-15 0 -28 16 -28 39c0 9 2 21 8 32c-45 -42 -92 -71 -132 -71c-62 0 -108 35 -108 103zM528 513c0 32 35 71 74 71c19 0 33 -12 33 -31c0 -32 -38 -68 -75 -68c-19 0 -32 10 -32 28zM328 513c0 31 36 71 75 71c19 0 34 -12 34 -31
c0 -32 -38 -68 -75 -68c-20 0 -34 10 -34 28z" />
    <glyph glyph-name="aring" unicode="&#xe5;" 
d="M473 519c53 0 100 51 100 91c0 22 -13 40 -43 40c-46 0 -99 -46 -99 -93c0 -21 14 -38 42 -38zM394 545c0 64 77 139 150 139c45 0 68 -23 68 -57c0 -69 -79 -142 -152 -142c-39 0 -66 23 -66 60zM408 387c-139 0 -200 -210 -200 -269v-8c0 -47 20 -72 63 -72
c35 0 88 40 98 64l78 185c5 12 8 23 9 35v8c0 32 -16 57 -48 57zM109 89c0 122 142 326 308 326c27 0 42 -6 59 -21l69 21c15 -1 23 -9 23 -25c0 -11 -4 -26 -11 -45l-109 -253c-2 -8 -4 -16 -4 -23c0 -20 13 -31 29 -31h4l-106 -52h-1c-16 0 -29 16 -29 39c0 9 3 21 9 32
c-46 -42 -93 -71 -132 -71c-62 0 -109 35 -109 103z" />
    <glyph glyph-name="ccedilla" unicode="&#xe7;" horiz-adv-x="430" 
d="M125 -192c43 0 71 40 71 67c0 18 -10 31 -25 31h-29l60 81c-48 7 -90 54 -90 121c0 96 112 307 309 307h2h3c55 0 108 -22 108 -68c0 -8 -1 -17 -5 -27c-11 -26 -34 -50 -64 -52l-46 26c18 0 39 28 39 48v4c-2 24 -26 40 -52 40c-120 0 -210 -174 -210 -250
c0 -56 29 -88 69 -88c32 0 95 2 132 16l1 -18c-43 -26 -112 -57 -168 -60l-38 -51c28 -1 47 -15 47 -44c0 -65 -63 -107 -132 -107c-18 0 -47 8 -47 27v7c12 28 31 42 50 42l12 -24c-15 -3 -19 -19 -19 -20c0 -5 11 -8 22 -8z" />
    <glyph glyph-name="egrave" unicode="&#xe8;" horiz-adv-x="413" 
d="M204 130c0 -33 9 -82 85 -82c26 0 72 4 110 16l4 -18c-67 -38 -118 -60 -184 -60c-58 1 -107 52 -107 121c0 87 115 308 316 308h2c41 0 75 -18 75 -53c0 -71 -104 -149 -290 -178c-7 -20 -11 -38 -11 -54zM252 266l-23 -46c141 39 182 65 197 133c2 5 3 9 3 13v1
c0 12 -7 21 -24 21c-38 0 -94 -27 -153 -122zM288 634h87c37 -2 111 -127 148 -129c-10 -10 -31 -20 -49 -20c-12 0 -34 2 -57 20c-23 16 -79 105 -129 129z" />
    <glyph glyph-name="eacute" unicode="&#xe9;" horiz-adv-x="415" 
d="M205 130c0 -33 10 -82 86 -82c26 0 71 4 109 16l5 -18c-68 -38 -119 -60 -184 -60c-58 1 -108 52 -108 121c0 87 115 308 317 308h2c40 0 75 -18 75 -53c0 -71 -105 -149 -290 -178c-8 -20 -12 -38 -12 -54zM254 266l-24 -46c142 39 182 65 198 133c2 5 3 9 3 13v1
c0 12 -7 21 -24 21c-38 0 -94 -27 -153 -122zM579 634c-52 -24 -108 -113 -130 -129c-17 -13 -37 -20 -57 -20c-18 0 -39 10 -49 20c37 2 110 127 147 129h89z" />
    <glyph glyph-name="ecircumflex" unicode="&#xea;" horiz-adv-x="415" 
d="M206 130c0 -33 9 -82 85 -82c26 0 72 4 110 16l4 -18c-67 -38 -118 -60 -184 -60c-58 1 -107 52 -107 121c0 87 115 308 316 308h2c41 0 75 -18 75 -53c0 -71 -105 -149 -290 -178c-7 -20 -11 -38 -11 -54zM254 266l-24 -46c142 39 183 65 198 133c2 5 3 9 3 13v1
c0 12 -7 21 -24 21c-38 0 -94 -27 -153 -122zM459 598c-30 -43 -77 -81 -118 -113h-76c63 46 129 106 169 149h74c30 -2 50 -127 86 -129c-12 -10 -38 -20 -56 -20c-21 0 -38 7 -49 20c-10 11 -16 58 -30 93z" />
    <glyph glyph-name="edieresis" unicode="&#xeb;" horiz-adv-x="415" 
d="M206 130c0 -33 9 -82 85 -82c26 0 72 4 110 16l4 -18c-67 -38 -118 -60 -184 -60c-58 1 -107 52 -107 121c0 87 115 308 316 308h2c41 0 75 -18 75 -53c0 -71 -104 -149 -290 -178c-7 -20 -11 -38 -11 -54zM254 266l-23 -46c141 39 182 65 197 133c2 5 3 9 3 13v1
c0 12 -7 21 -24 21c-38 0 -94 -27 -153 -122zM292 513c0 31 36 71 74 71c20 0 35 -12 35 -31c0 -32 -38 -68 -76 -68c-19 0 -33 10 -33 28zM491 513c0 32 36 71 74 71c20 0 34 -12 34 -31c0 -32 -38 -68 -76 -68c-19 0 -32 10 -32 28z" />
    <glyph glyph-name="igrave" unicode="&#xec;" horiz-adv-x="234" 
d="M169 636h88c37 -2 111 -127 148 -129c-10 -10 -32 -20 -49 -20c-12 0 -34 2 -58 20c-22 16 -78 105 -129 129zM326 400l-134 -316c-6 -16 -10 -29 -10 -38c0 -15 8 -24 23 -26l-81 -34c-18 1 -31 12 -31 36c0 16 6 37 17 65l89 209c14 30 20 49 20 61c0 13 -6 19 -15 25
l83 34h9c13 0 25 -4 30 -16z" />
    <glyph glyph-name="iacute" unicode="&#xed;" horiz-adv-x="236" 
d="M481 636c-51 -24 -107 -113 -130 -129c-17 -13 -38 -20 -58 -20c-16 0 -39 10 -48 20c37 2 110 127 147 129h89zM328 400l-134 -316c-6 -16 -10 -29 -10 -38c0 -15 8 -24 23 -26l-81 -34c-18 1 -31 12 -31 36c0 16 6 37 17 65l89 209c14 30 20 49 20 61
c0 13 -6 19 -15 25l83 34h9c13 0 25 -4 30 -16z" />
    <glyph glyph-name="icircumflex" unicode="&#xee;" horiz-adv-x="237" 
d="M360 600c-31 -43 -77 -81 -119 -113h-76c64 46 129 106 169 149h75c30 -2 50 -127 86 -129c-13 -10 -38 -20 -57 -20s-37 7 -48 20c-10 11 -16 58 -30 93zM328 400l-134 -316c-5 -16 -9 -29 -9 -38c0 -15 7 -24 23 -26l-82 -34c-18 1 -30 12 -30 36c0 16 5 37 17 65
l88 209c14 30 20 49 20 61c0 13 -6 19 -14 25l82 34h9c13 0 26 -4 30 -16z" />
    <glyph glyph-name="idieresis" unicode="&#xef;" horiz-adv-x="237" 
d="M392 514c0 32 35 71 74 71c19 0 33 -12 33 -31c0 -32 -38 -68 -75 -68c-19 0 -32 10 -32 28zM193 514c0 31 36 71 75 71c19 0 33 -12 33 -31c0 -32 -38 -68 -75 -68c-20 0 -33 10 -33 28zM328 400l-134 -316c-5 -16 -9 -29 -9 -38c0 -15 8 -24 23 -26l-82 -34
c-18 1 -30 12 -30 36c0 16 5 37 17 65l88 209c14 30 20 49 20 61c0 13 -6 19 -14 25l82 34h9c13 0 26 -4 30 -16z" />
    <glyph glyph-name="eth" unicode="&#xf0;" horiz-adv-x="501" 
d="M262 14c106 0 210 206 211 295c0 4 1 9 1 13c0 42 -21 65 -63 65c-109 0 -211 -201 -211 -294v-9c0 -43 19 -66 62 -70zM119 111c0 121 132 304 301 304c40 0 53 -20 75 -60c14 34 23 72 26 108c1 11 1 22 1 32c0 31 -3 59 -11 80l-124 -65l-20 30l129 64
c-20 29 -49 47 -90 56l51 23c45 -6 77 -22 100 -47l101 50l21 -30l-104 -48c19 -42 34 -85 34 -141c0 -58 -17 -130 -58 -227c-67 -159 -194 -254 -307 -254c-70 0 -125 45 -125 125z" />
    <glyph glyph-name="ntilde" unicode="&#xf1;" horiz-adv-x="465" 
d="M484 485c-51 0 -82 46 -113 46c-33 0 -70 -14 -114 -46c43 66 109 106 162 106c30 0 39 -11 58 -28c12 -11 32 -22 45 -22c35 0 72 10 126 50c-55 -78 -114 -106 -164 -106zM133 -14c-27 0 -34 18 -34 36c0 16 6 37 18 65l88 209c14 30 20 49 20 61c0 13 -6 19 -14 25
l88 33c8 -1 20 -8 20 -30c0 -10 -3 -23 -10 -40l-11 -25c37 48 85 95 142 95h6c37 0 76 -25 76 -77c0 -17 -5 -38 -15 -61l-82 -193c-6 -16 -9 -29 -9 -38c0 -15 7 -24 23 -26l-82 -34c-19 1 -31 12 -31 36c0 16 6 37 18 65l79 190c8 16 12 31 13 44v8c0 28 -13 46 -34 46
h-1c-47 0 -117 -89 -129 -117l-74 -174c-7 -18 -10 -33 -10 -42c0 -13 5 -20 16 -22c-10 -12 -46 -34 -71 -34z" />
    <glyph glyph-name="ograve" unicode="&#xf2;" 
d="M115 108c0 106 115 307 310 307c74 0 131 -39 131 -115c0 -122 -142 -314 -313 -314c-72 0 -128 43 -128 122zM258 20c77 0 206 146 206 270c0 4 1 7 1 11c0 48 -19 80 -54 80c-83 0 -208 -153 -208 -271v-10c0 -48 18 -80 55 -80zM316 634h87c37 -2 112 -127 149 -129
c-11 -10 -32 -20 -50 -20c-11 0 -34 2 -57 20c-23 16 -79 105 -129 129z" />
    <glyph glyph-name="oacute" unicode="&#xf3;" horiz-adv-x="495" 
d="M116 108c0 106 115 307 311 307c74 0 131 -39 131 -115c0 -122 -143 -314 -314 -314c-72 0 -128 43 -128 122zM259 20c77 0 207 146 207 270c0 4 1 7 1 11c0 48 -19 80 -55 80c-82 0 -208 -153 -208 -271v-10c0 -48 18 -80 55 -80zM609 634c-51 -24 -107 -113 -130 -129
c-17 -13 -37 -20 -57 -20c-17 0 -39 10 -49 20c37 2 111 127 148 129h88z" />
    <glyph glyph-name="ocircumflex" unicode="&#xf4;" horiz-adv-x="495" 
d="M116 108c0 106 115 307 311 307c74 0 131 -39 131 -115c0 -122 -142 -314 -313 -314c-73 0 -129 43 -129 122zM260 20c77 0 206 146 206 270c0 4 1 7 1 11c0 48 -19 80 -54 80c-83 0 -208 -153 -208 -271v-10c0 -48 18 -80 55 -80zM489 598c-31 -43 -77 -81 -119 -113
h-76c64 46 129 106 169 149h74c31 -2 51 -127 87 -129c-13 -10 -38 -20 -56 -20c-21 0 -38 7 -50 20c-9 11 -16 58 -29 93z" />
    <glyph glyph-name="otilde" unicode="&#xf5;" horiz-adv-x="496" 
d="M117 108c0 106 115 307 311 307c74 0 131 -39 131 -115c0 -122 -142 -314 -313 -314c-73 0 -129 43 -129 122zM261 20c77 0 206 146 206 270c0 4 1 7 1 11c0 48 -19 80 -54 80c-83 0 -208 -153 -208 -271v-10c0 -48 18 -80 55 -80zM497 485c-51 0 -81 46 -113 46
c-33 0 -70 -14 -114 -46c43 66 110 106 162 106c31 0 39 -11 58 -28c12 -11 32 -22 45 -22c35 0 73 10 126 50c-54 -78 -114 -106 -164 -106z" />
    <glyph glyph-name="odieresis" unicode="&#xf6;" horiz-adv-x="495" 
d="M116 108c0 106 115 307 311 307c74 0 131 -39 131 -115c0 -122 -142 -314 -313 -314c-72 0 -129 43 -129 122zM260 20c77 0 206 146 206 270c0 4 1 7 1 11c0 48 -19 80 -54 80c-83 0 -208 -153 -208 -271v-10c0 -48 18 -80 55 -80zM322 513c0 31 36 71 74 71
c20 0 34 -12 34 -31c0 -32 -38 -68 -76 -68c-19 0 -32 10 -32 28zM520 513c0 32 36 71 74 71c20 0 35 -12 35 -31c0 -32 -38 -68 -76 -68c-19 0 -33 10 -33 28z" />
    <glyph glyph-name="divide" unicode="&#xf7;" horiz-adv-x="503" 
d="M333 151h1c21 0 43 -20 43 -45v-2v-2c0 -24 -21 -46 -43 -46c-27 0 -47 23 -47 48c0 26 20 47 46 47zM563 242h-460l-1 55h460zM334 388h-1c-22 0 -44 21 -44 48c0 25 22 47 45 47c25 0 45 -22 46 -47c-1 -27 -21 -48 -46 -48z" />
    <glyph glyph-name="oslash" unicode="&#xf8;" 
d="M114 106c0 108 115 309 311 309c12 0 24 -1 34 -3l68 88h68l-91 -108c33 -19 52 -50 52 -93c0 -120 -142 -313 -313 -313c-16 0 -29 2 -41 5l-69 -91h-71l95 114c-28 20 -43 52 -43 92zM258 20c77 0 206 147 206 269c0 17 -1 33 -4 46l-231 -307c8 -5 17 -8 29 -8z
M411 381c-83 0 -208 -155 -208 -270c0 -14 1 -27 2 -38l227 303c-6 3 -14 5 -21 5z" />
    <glyph glyph-name="ugrave" unicode="&#xf9;" horiz-adv-x="463" 
d="M331 634h88c37 -2 111 -127 148 -129c-10 -10 -31 -20 -49 -20c-12 0 -35 2 -57 20c-23 16 -79 105 -130 129zM307 345l-97 -229c-7 -15 -10 -28 -11 -39c0 -2 -1 -4 -1 -6c0 -27 18 -39 43 -39h9c19 0 85 40 102 83l77 181c15 30 20 49 21 61c1 13 -3 19 -9 25l83 33
c12 -9 18 -19 18 -34c0 -10 -2 -21 -8 -36l-111 -261c-7 -16 -10 -29 -10 -38c0 -15 8 -24 23 -26l-82 -34c-18 1 -28 13 -28 37c0 10 2 22 5 37c-39 -33 -95 -74 -130 -74h-6c-38 0 -81 25 -81 77c0 16 5 35 13 56l75 177c15 30 20 48 20 61s-5 19 -15 25l90 33
c11 -8 16 -21 16 -38c0 -9 -1 -20 -6 -32z" />
    <glyph glyph-name="uacute" unicode="&#xfa;" horiz-adv-x="464" 
d="M593 634c-51 -24 -107 -113 -130 -129c-17 -13 -37 -20 -57 -20c-17 0 -39 10 -48 20c37 2 110 127 147 129h88zM307 345l-96 -229c-7 -15 -10 -28 -11 -39c0 -2 -1 -4 -1 -6c0 -27 17 -39 43 -39h8c19 0 86 40 103 83l77 181c14 30 20 49 21 61c1 13 -3 19 -10 25l84 33
c11 -9 18 -19 18 -34c0 -10 -2 -21 -9 -36l-111 -261c-6 -16 -9 -29 -9 -38c0 -15 7 -24 23 -26l-82 -34c-18 1 -29 13 -29 37c0 10 2 22 6 37c-40 -33 -96 -74 -130 -74h-7c-38 0 -80 25 -80 77c0 16 4 35 13 56l75 177c14 30 20 48 20 61s-6 19 -15 25l90 33
c10 -8 16 -21 16 -38c0 -9 -2 -20 -7 -32z" />
    <glyph glyph-name="ucircumflex" unicode="&#xfb;" horiz-adv-x="464" 
d="M474 598c-30 -43 -77 -81 -119 -113h-76c64 46 130 106 169 149h75c30 -2 50 -127 86 -129c-12 -10 -38 -20 -56 -20c-21 0 -37 7 -49 20c-10 11 -17 58 -30 93zM308 345l-97 -229c-7 -15 -10 -28 -11 -39v-6c0 -27 17 -39 42 -39h9c19 0 85 40 102 83l77 181
c15 30 20 49 21 61c1 13 -3 19 -9 25l83 33c12 -9 18 -19 18 -34c0 -10 -1 -21 -8 -36l-111 -261c-7 -16 -10 -29 -10 -38c0 -15 8 -24 23 -26l-82 -34c-18 1 -28 13 -28 37c0 10 2 22 6 37c-40 -33 -96 -74 -131 -74h-6c-38 0 -81 25 -81 77c0 16 5 35 13 56l75 177
c15 30 20 48 20 61s-5 19 -15 25l90 33c11 -8 16 -21 16 -38c0 -9 -1 -20 -6 -32z" />
    <glyph glyph-name="udieresis" unicode="&#xfc;" horiz-adv-x="464" 
d="M506 513c0 32 36 71 74 71c20 0 34 -12 34 -31c0 -32 -38 -68 -76 -68c-19 0 -32 10 -32 28zM307 513c0 31 36 71 74 71c20 0 34 -12 34 -31c0 -32 -38 -68 -76 -68c-19 0 -32 10 -32 28zM308 345l-97 -229c-7 -15 -9 -28 -10 -39c0 -2 -1 -4 -1 -6c0 -27 17 -39 42 -39
h9c19 0 85 40 103 83l77 181c14 30 19 49 20 61c1 13 -2 19 -9 25l84 33c11 -9 18 -19 18 -34c0 -10 -2 -21 -9 -36l-111 -261c-7 -16 -10 -29 -10 -38c0 -15 8 -24 23 -26l-82 -34c-18 1 -28 13 -28 37c0 10 2 22 6 37c-40 -33 -96 -74 -130 -74h-7c-38 0 -81 25 -81 77
c0 16 5 35 13 56l75 177c15 30 20 48 20 61s-5 19 -15 25l90 33c11 -8 17 -21 17 -38c0 -9 -2 -20 -7 -32z" />
    <glyph glyph-name="yacute" unicode="&#xfd;" horiz-adv-x="406" 
d="M440 379c8 9 29 36 74 36c17 0 24 -13 24 -28c0 -10 -3 -21 -8 -30l-307 -369c-51 -66 -195 -272 -283 -272c-27 2 -48 10 -99 80c37 -33 59 -39 92 -39c8 0 14 1 21 1h1c45 0 186 164 241 244l19 352c0 14 -8 24 -20 26l78 35c10 0 14 -19 14 -43c0 -13 -1 -27 -3 -40
c0 -4 0 -8 -1 -12l-16 -230l207 256c1 4 2 8 2 12c0 13 -10 22 -27 22c-3 0 -6 -1 -9 -1zM547 628c-51 -24 -108 -113 -130 -129c-17 -13 -38 -20 -58 -20c-16 0 -39 10 -48 20c37 2 110 127 147 129h89z" />
    <glyph glyph-name="thorn" unicode="&#xfe;" horiz-adv-x="478" 
d="M236 20c128 0 208 209 208 278c1 3 1 5 1 8c0 42 -21 61 -61 61c-37 0 -98 -45 -117 -90l-87 -207c-2 -4 -3 -8 -3 -11c0 -20 21 -39 59 -39zM543 315c0 -129 -164 -329 -333 -329c-25 0 -44 2 -63 10l-71 -174c-10 -19 -14 -34 -15 -44c-1 -13 3 -20 12 -22l-72 -40h-1
c-18 0 -29 16 -29 39c0 10 2 21 7 33l331 785c7 16 10 31 10 43c0 19 -7 31 -15 31l97 38c15 -2 23 -9 23 -25c0 -11 -5 -26 -13 -45l-121 -285c35 47 93 85 147 85c56 0 106 -32 106 -100z" />
    <glyph glyph-name="ydieresis" unicode="&#xff;" horiz-adv-x="406" 
d="M440 379c8 9 29 36 74 36c17 0 24 -13 24 -28c0 -10 -3 -21 -8 -30l-307 -369c-51 -66 -195 -272 -283 -272c-27 2 -48 10 -99 80c37 -33 59 -39 92 -39c8 0 14 1 21 1h1c45 0 186 164 241 244l19 352c0 14 -8 24 -20 26l78 35c10 0 14 -19 14 -43c0 -13 -1 -27 -3 -40
c0 -4 0 -8 -1 -12l-16 -230l207 256c1 4 2 8 2 12c0 13 -10 22 -27 22c-3 0 -6 -1 -9 -1zM452 514c0 32 35 71 74 71c19 0 33 -12 33 -31c0 -32 -38 -68 -75 -68c-19 0 -32 10 -32 28zM252 514c0 31 36 71 75 71c19 0 33 -12 33 -31c0 -32 -38 -68 -75 -68
c-20 0 -33 10 -33 28z" />
    <glyph glyph-name="dotlessi" unicode="&#x131;" horiz-adv-x="232" 
d="M324 400l-134 -316c-6 -16 -10 -29 -10 -38c0 -15 8 -24 23 -26l-81 -34c-19 1 -31 12 -31 36c0 16 6 37 17 65l89 209c14 30 20 49 20 61c0 13 -6 19 -15 25l83 34h8c14 0 26 -4 31 -16z" />
    <glyph glyph-name="Lslash" unicode="&#x141;" horiz-adv-x="517" 
d="M513 154l34 -56l-133 -98h-383c59 24 76 48 105 109l112 266l-71 -30l23 54l71 30l52 124c11 23 14 41 14 54c0 26 -16 34 -34 37l132 41c16 -1 25 -8 25 -25c0 -19 -10 -52 -35 -107l-31 -73l57 28l-22 -54l-57 -28l-134 -317c-14 -31 -18 -50 -20 -64c8 -5 24 -6 49 -6
h53h1c73 0 144 61 192 115z" />
    <glyph glyph-name="lslash" unicode="&#x142;" horiz-adv-x="231" 
d="M416 615l-66 -154l43 17l-23 -54l-43 -17l-136 -323c-7 -16 -10 -29 -10 -38c0 -15 8 -24 23 -26l-82 -34c-19 1 -30 12 -30 36c0 16 5 37 17 65l118 278l-40 -16l23 54l40 16l60 145c14 33 21 56 21 70c0 11 -5 16 -14 16h-2l89 35c14 -1 22 -9 22 -27
c0 -11 -3 -25 -10 -43z" />
    <glyph glyph-name="Scaron" unicode="&#x160;" horiz-adv-x="452" 
d="M329 80v17c0 101 -85 164 -85 282c0 8 1 16 2 24c3 32 13 68 31 109c43 104 161 173 230 173c60 0 146 -31 146 -100c0 -9 -2 -19 -6 -30c-19 -46 -47 -66 -90 -68l-34 72c16 0 40 16 41 41c0 30 -34 43 -64 43h-8c-59 0 -141 -56 -151 -153v-14
c0 -105 111 -186 111 -330c0 -205 -281 -430 -533 -430c-65 2 -140 33 -140 102c0 72 70 122 119 122h3l31 -42c-45 -4 -61 -69 -61 -93v-5c0 -41 31 -50 64 -50c113 2 292 72 377 261c11 25 15 48 17 69zM511 771c70 56 111 113 175 113c18 0 34 -10 41 -20
c-38 -2 -166 -127 -198 -129h-75c-2 43 -17 103 -41 149h75c13 -27 25 -57 25 -91c0 -4 0 -7 -1 -10c0 -4 0 -8 -1 -12z" />
    <glyph glyph-name="scaron" unicode="&#x161;" horiz-adv-x="391" 
d="M402 521c70 56 111 113 175 113c18 0 34 -10 41 -20c-38 -2 -166 -127 -198 -129h-75c-2 43 -17 103 -41 149h75c12 -27 25 -57 25 -91c0 -4 0 -7 -1 -10c0 -4 0 -8 -1 -12zM169 268c0 29 49 147 207 147h9h5c32 0 89 -14 97 -53l-97 -50c5 12 7 23 7 33
c0 28 -16 47 -39 47h-2c-72 0 -108 -58 -108 -80c0 -58 149 -75 149 -175c0 -14 -4 -29 -10 -44c-30 -73 -96 -107 -198 -107c-59 0 -121 13 -121 49c0 4 1 8 3 13c19 40 52 56 105 62c-18 -16 -27 -32 -27 -45c0 -16 13 -43 54 -45c83 0 111 45 111 75c0 32 -29 63 -59 85
c-41 26 -86 50 -86 88z" />
    <glyph glyph-name="Ydieresis" unicode="&#x178;" horiz-adv-x="547" 
d="M642 763c0 32 36 71 74 71c20 0 34 -12 34 -31c0 -32 -38 -68 -76 -68c-19 0 -32 10 -32 28zM444 763c0 31 36 71 74 71c20 0 34 -12 34 -31c0 -32 -38 -68 -76 -68c-19 0 -32 10 -32 28zM700 642l98 43c16 -1 23 -6 23 -14c0 -29 -67 -92 -120 -142l-194 -226l-81 -194
c-37 -89 -86 -123 -119 -123l-65 34c28 0 49 4 86 100l74 174l-26 191c-15 86 -36 155 -83 157l116 43c39 -4 44 -44 52 -117l21 -221l211 226c29 29 39 45 39 54c0 13 -19 13 -32 15z" />
    <glyph glyph-name="Zcaron" unicode="&#x17d;" horiz-adv-x="560" 
d="M586 771c70 56 111 113 175 113c17 0 34 -10 41 -20c-38 -2 -166 -127 -198 -129h-75c-2 43 -17 103 -41 149h75c13 -27 24 -57 24 -91v-10c0 -4 -1 -8 -1 -12zM295 545c0 58 65 130 139 130h4h357l-15 -34l-600 -603h199c74 0 113 66 163 132l44 -62l-121 -108h-431
l15 38l618 599h-171h-7c-62 0 -79 -15 -90 -38c-5 -10 -9 -19 -9 -26s3 -12 14 -12h4l-74 -54c-25 0 -39 14 -39 38z" />
    <glyph glyph-name="zcaron" unicode="&#x17e;" horiz-adv-x="410" 
d="M425 521c70 56 111 113 175 113c17 0 34 -10 40 -20c-38 -2 -165 -127 -197 -129h-75c-2 43 -17 103 -41 149h75c12 -27 24 -57 24 -91v-10c0 -4 -1 -8 -1 -12zM311 415c73 -5 74 -42 93 -42c8 0 21 7 44 27h111l-13 -30l-366 -326c76 -28 177 -288 274 -292
c6 -1 13 -2 21 -2c39 0 93 13 131 50c-55 -72 -89 -84 -151 -84h-14c-138 2 -251 284 -317 284h-76l12 30l366 328c-13 -9 -22 -12 -31 -12c-16 0 -24 10 -32 20c-8 9 -15 19 -29 19h-1c-27 0 -55 -26 -55 -43c0 -8 6 -14 23 -15l-59 -37h-2c-29 0 -44 21 -44 44
c0 27 20 77 115 81z" />
    <glyph glyph-name="longs" unicode="&#x17f;" horiz-adv-x="269" 
d="M417 569l-215 -514c-60 -139 -115 -198 -184 -198h-5c-20 0 -47 12 -47 34c68 2 110 42 169 180l123 298h-73l88 32c66 157 173 286 272 286c47 -1 62 -19 62 -43v-9l-1 -2c-6 -27 -33 -51 -57 -51s-33 11 -36 26c17 1 29 18 30 29v2v2c0 10 -12 16 -32 16
c-38 0 -69 -29 -94 -88z" />
    <glyph glyph-name="florin" unicode="&#x192;" horiz-adv-x="367" 
d="M664 640c0 -24 -25 -60 -63 -60h-6c-18 0 -29 6 -29 20c0 5 1 10 5 17h3c22 0 23 12 28 27c0 10 -39 12 -50 12c-33 0 -76 -31 -101 -90l-64 -151h113l-14 -32h-111l-119 -279c-36 -86 -178 -243 -265 -243c-34 0 -55 13 -55 34c0 29 38 73 78 73c11 0 30 -13 30 -28
c0 -1 0 -1 -1 -2c-31 -2 -41 -20 -41 -33c0 -7 3 -12 11 -13c42 0 122 121 160 212l118 279h-81l13 32h82c68 157 173 268 277 268c49 0 82 -15 82 -43z" />
    <glyph glyph-name="circumflex" unicode="&#x2c6;" horiz-adv-x="379" 
d="M442 626c-30 -43 -76 -81 -118 -113h-76c63 46 129 106 169 149h75c30 -2 50 -127 86 -129c-13 -10 -39 -20 -57 -20c-20 0 -37 7 -48 20c-11 11 -16 58 -31 93z" />
    <glyph glyph-name="caron" unicode="&#x2c7;" horiz-adv-x="374" 
d="M417 549c70 56 111 113 175 113c18 0 34 -10 41 -20c-38 -2 -166 -127 -198 -129h-75c-2 43 -17 103 -41 149h75c13 -27 25 -57 25 -91c0 -4 0 -7 -1 -10c0 -4 0 -8 -1 -12z" />
    <glyph glyph-name="breve" unicode="&#x2d8;" horiz-adv-x="396" 
d="M326 584c0 32 13 66 20 80h29c-3 -13 -4 -24 -4 -35c0 -42 25 -62 74 -62c60 0 97 27 153 97h28c-56 -105 -125 -157 -208 -157c-58 0 -92 26 -92 77z" />
    <glyph glyph-name="dotaccent" unicode="&#x2d9;" horiz-adv-x="226" 
d="M315 592c0 36 44 82 85 82c22 0 35 -14 35 -34c0 -37 -44 -82 -85 -82c-22 0 -35 14 -35 34z" />
    <glyph glyph-name="ring" unicode="&#x2da;" horiz-adv-x="314" 
d="M389 546c53 0 99 51 99 91c0 22 -13 40 -42 40c-46 0 -99 -46 -99 -93c0 -21 13 -38 42 -38zM310 572c0 64 77 139 150 139c44 0 67 -23 67 -57c0 -69 -79 -142 -152 -142c-39 0 -65 23 -65 60z" />
    <glyph glyph-name="ogonek" unicode="&#x2db;" horiz-adv-x="262" 
d="M143 0c-40 -24 -79 -56 -79 -92c0 -14 7 -24 24 -24h2c22 0 45 13 64 28l18 -18c-29 -30 -73 -58 -113 -58c-31 0 -59 17 -59 48c0 45 48 87 97 116h46z" />
    <glyph glyph-name="tilde" unicode="&#x2dc;" horiz-adv-x="455" 
d="M523 556c-50 0 -80 46 -113 46c-32 0 -69 -14 -113 -46c43 66 109 106 161 106c31 0 39 -11 59 -28c12 -11 32 -22 44 -22c35 0 73 10 126 50c-54 -78 -114 -106 -164 -106z" />
    <glyph glyph-name="hungarumlaut" unicode="&#x2dd;" horiz-adv-x="445" 
d="M697 662c-94 -37 -167 -149 -237 -149c-13 0 -25 10 -29 20c29 2 142 127 178 129h88zM538 662c-79 -36 -148 -149 -226 -149c-17 0 -34 10 -41 20c38 2 165 127 196 129h71z" />
    <glyph glyph-name="pi" unicode="&#x3c0;" horiz-adv-x="562" 
d="M506 365c-51 1 -102 2 -134 2l-8 -18c-94 -221 -192 -328 -213 -344c-20 -7 -48 -15 -65 -17l1 17c112 88 207 265 249 364c-70 0 -105 -20 -153 -48l-5 22c48 38 106 90 207 90h3c63 0 145 -3 245 -3c29 0 47 5 76 34l20 -9c-24 -37 -53 -71 -75 -88
c-16 -3 -43 -4 -71 -4c-32 -59 -73 -162 -102 -231c-11 -26 -17 -47 -17 -62c0 -17 9 -26 26 -26c21 0 38 11 63 30l4 -20c-45 -46 -95 -66 -132 -66c-34 0 -58 11 -58 47c0 47 99 247 139 330z" />
    <glyph glyph-name="uni2000" unicode="&#x2000;" horiz-adv-x="500" 
 />
    <glyph glyph-name="uni2001" unicode="&#x2001;" horiz-adv-x="1000" 
 />
    <glyph glyph-name="uni2002" unicode="&#x2002;" horiz-adv-x="500" 
 />
    <glyph glyph-name="uni2003" unicode="&#x2003;" horiz-adv-x="1000" 
 />
    <glyph glyph-name="uni2004" unicode="&#x2004;" horiz-adv-x="333" 
 />
    <glyph glyph-name="uni2005" unicode="&#x2005;" horiz-adv-x="250" 
 />
    <glyph glyph-name="uni2006" unicode="&#x2006;" horiz-adv-x="166" 
 />
    <glyph glyph-name="uni2007" unicode="&#x2007;" horiz-adv-x="506" 
 />
    <glyph glyph-name="uni2008" unicode="&#x2008;" horiz-adv-x="214" 
 />
    <glyph glyph-name="uni2009" unicode="&#x2009;" horiz-adv-x="100" 
 />
    <glyph glyph-name="uni200A" unicode="&#x200a;" horiz-adv-x="10" 
 />
    <glyph glyph-name="uni2010" unicode="&#x2010;" horiz-adv-x="363" 
d="M79 176v70h352v-70h-352z" />
    <glyph glyph-name="uni2011" unicode="&#x2011;" horiz-adv-x="363" 
d="M79 176v70h352v-70h-352z" />
    <glyph glyph-name="figuredash" unicode="&#x2012;" horiz-adv-x="506" 
d="M79 176v70h495v-70h-495z" />
    <glyph glyph-name="endash" unicode="&#x2013;" horiz-adv-x="500" 
d="M79 176v70h489v-70h-489z" />
    <glyph glyph-name="emdash" unicode="&#x2014;" horiz-adv-x="1000" 
d="M79 176v70h989v-70h-989z" />
    <glyph glyph-name="afii00208" unicode="&#x2015;" horiz-adv-x="2000" 
d="M79 176v70h1989v-70h-1989z" />
    <glyph glyph-name="uni2016" unicode="&#x2016;" horiz-adv-x="502" 
d="M516 -14h-66v689h66v-689zM265 -14h-66v689h66v-689z" />
    <glyph glyph-name="quoteleft" unicode="&#x2018;" horiz-adv-x="240" 
d="M406 512c0 -25 -29 -79 -89 -79c-30 0 -51 17 -51 49c0 63 79 152 186 194l1 -19c-71 -37 -113 -73 -127 -106c-4 -9 0 -13 8 -14c1 0 23 4 29 4c26 0 43 -10 43 -29z" />
    <glyph glyph-name="quoteright" unicode="&#x2019;" horiz-adv-x="239" 
d="M307 596c0 21 27 80 89 80c30 0 51 -17 51 -48c0 -48 -55 -143 -186 -195l-1 19c70 37 113 73 126 106c4 9 1 13 -7 14c-1 0 -23 -4 -29 -4c-27 0 -43 9 -43 28z" />
    <glyph glyph-name="quotesinglbase" unicode="&#x201a;" horiz-adv-x="225" 
d="M52 22c0 30 34 80 89 80c30 0 52 -18 52 -49c0 -39 -46 -139 -187 -194v19c69 37 112 73 126 106c4 9 1 13 -8 14c0 0 -6 -1 -13 -2c-6 -1 -13 -2 -16 -2c-27 0 -43 9 -43 28z" />
    <glyph glyph-name="uni201B" unicode="&#x201b;" horiz-adv-x="213" 
d="M337 454c-33 24 -48 59 -48 97c0 8 1 15 2 23c2 14 6 28 11 42c25 59 72 93 110 93c22 0 34 -12 34 -31c0 -3 0 -6 -1 -9c-1 -6 -3 -13 -6 -20c-13 -35 -40 -53 -73 -53c-6 0 -22 4 -23 4c-7 -1 -15 -5 -19 -15c-2 -7 -4 -13 -4 -20c-1 -4 -1 -8 -1 -13
c0 -25 10 -51 34 -78z" />
    <glyph glyph-name="quotedblleft" unicode="&#x201c;" horiz-adv-x="449" 
d="M615 512c0 -20 -25 -79 -87 -79c-30 0 -50 15 -50 43v5c6 62 75 152 184 195l2 -19c-72 -37 -114 -73 -129 -106c-3 -9 1 -13 9 -14c1 0 23 4 29 4c27 0 42 -10 42 -29zM323 433c-32 0 -53 17 -53 49c0 63 79 152 188 194l-1 -19c-70 -37 -112 -73 -126 -106
c-4 -9 0 -13 9 -14c1 0 22 4 28 4c26 0 38 -9 38 -26c0 -24 -27 -82 -83 -82z" />
    <glyph glyph-name="quotedblright" unicode="&#x201d;" horiz-adv-x="446" 
d="M604 676c31 0 52 -17 52 -48c0 -39 -46 -139 -186 -195l-1 19c71 37 113 73 126 106c4 9 1 13 -7 14c-2 0 -24 -4 -29 -4c-27 0 -40 8 -40 25c0 27 31 83 85 83zM311 596c0 27 31 80 88 80c29 0 49 -16 49 -44c0 -39 -45 -142 -184 -199l-1 19c71 37 113 73 127 106
c3 9 0 13 -8 14c-1 0 -23 -4 -28 -4c-28 0 -43 9 -43 28z" />
    <glyph glyph-name="quotedblbase" unicode="&#x201e;" horiz-adv-x="432" 
d="M348 102c31 0 52 -18 52 -49c0 -70 -91 -156 -186 -194v19c70 37 112 73 126 106c4 9 1 13 -8 14c-1 0 -7 -1 -13 -2c-7 -1 -13 -2 -16 -2c-27 0 -39 8 -39 25c0 29 31 83 84 83zM55 22c0 30 33 80 88 80c30 0 50 -16 50 -44c0 -40 -48 -143 -185 -199v19
c70 37 112 73 127 106c3 9 0 13 -9 14l-12 -2c-7 -1 -13 -2 -16 -2c-28 0 -43 9 -43 28z" />
    <glyph glyph-name="uni201F" unicode="&#x201f;" horiz-adv-x="406" 
d="M342 454c-34 24 -49 60 -49 99c0 8 1 15 2 23c2 13 6 27 11 40c24 59 73 93 109 93c23 0 35 -12 35 -30c0 -4 -1 -9 -1 -10c-2 -6 -4 -13 -7 -20c-13 -35 -38 -53 -72 -53c-5 0 -22 4 -23 4c-7 -1 -14 -5 -17 -15c-3 -7 -5 -13 -6 -20v-13c0 -25 10 -51 33 -78zM532 454
c-34 24 -48 59 -48 97c0 8 1 16 2 23c3 14 7 28 12 42c25 59 71 93 109 93c22 0 34 -12 34 -31c0 -3 -1 -6 -1 -9c-1 -6 -3 -13 -6 -20c-13 -35 -40 -53 -73 -53c-6 0 -22 4 -23 4c-8 -1 -15 -5 -19 -15c-3 -6 -5 -13 -5 -19c0 -5 -1 -9 -1 -13c0 -25 11 -52 33 -79z" />
    <glyph glyph-name="dagger" unicode="&#x2020;" 
d="M215 -103h-41l54 118c75 170 98 242 100 274c34 38 52 59 87 137c-78 0 -129 -14 -161 -33c-14 5 -28 25 -30 46c21 21 53 42 71 47c15 -17 53 -33 131 -34c32 75 43 119 45 152v10v8c17 20 48 47 70 55c18 -7 25 -31 25 -50c0 -2 0 -3 -1 -5c-30 -32 -59 -66 -107 -170
c80 1 127 15 160 34c15 -5 29 -26 30 -47c-20 -21 -52 -41 -71 -46c-14 18 -44 33 -130 33c-25 -56 -33 -88 -35 -116v-11v-10c-29 -35 -71 -107 -145 -274z" />
    <glyph glyph-name="daggerdbl" unicode="&#x2021;" horiz-adv-x="490" 
d="M521 160c-18 -19 -52 -43 -71 -48c-16 18 -48 35 -127 36c-40 -87 -55 -145 -57 -180v-7v-8c-17 -21 -49 -47 -72 -54c-15 7 -23 29 -23 50v4c35 33 78 105 119 195c-83 -1 -133 -20 -161 -36c-15 5 -27 29 -29 48c17 18 51 41 71 46c14 -19 51 -33 130 -34
c25 60 35 92 36 115v6c0 8 -1 16 -3 23c32 30 50 46 89 131c-80 0 -129 -15 -160 -34c-14 6 -28 30 -29 47c18 18 52 43 71 47c14 -17 47 -33 130 -34c25 59 34 94 36 121v9c0 7 0 14 -1 21c17 21 49 47 71 54c16 -7 24 -30 24 -50v-4c-32 -31 -54 -53 -97 -151
c79 1 124 15 158 34c15 -4 27 -29 29 -47c-17 -17 -51 -41 -71 -47c-14 18 -43 34 -128 34c-23 -51 -31 -79 -32 -100c-1 -2 -1 -4 -1 -6c0 -9 2 -16 3 -24c-56 -49 -92 -145 -92 -145c84 0 128 16 158 34c14 -5 27 -28 29 -46z" />
    <glyph glyph-name="bullet" unicode="&#x2022;" horiz-adv-x="371" 
d="M274 466c75 0 143 -54 143 -137c0 -68 -60 -133 -142 -133c-73 0 -142 55 -142 134c0 82 65 136 141 136z" />
    <glyph glyph-name="uni2023" unicode="&#x2023;" horiz-adv-x="400" 
d="M50 150v400l300 -200z" />
    <glyph glyph-name="onedotenleader" unicode="&#x2024;" horiz-adv-x="214" 
d="M60 22c0 31 39 78 85 78c20 0 37 -11 37 -33c0 -35 -40 -78 -86 -78c-19 0 -36 12 -36 33z" />
    <glyph glyph-name="twodotenleader" unicode="&#x2025;" horiz-adv-x="428" 
d="M274 22c0 31 39 78 85 78c20 0 37 -11 37 -33c0 -35 -40 -78 -86 -78c-19 0 -36 12 -36 33zM60 22c0 31 39 78 85 78c20 0 37 -11 37 -33c0 -35 -40 -78 -86 -78c-19 0 -36 12 -36 33z" />
    <glyph glyph-name="ellipsis" unicode="&#x2026;" horiz-adv-x="642" 
d="M488 22c0 31 39 78 85 78c20 0 37 -11 37 -33c0 -35 -40 -78 -86 -78c-19 0 -36 12 -36 33zM274 22c0 31 39 78 85 78c20 0 37 -11 37 -33c0 -35 -40 -78 -86 -78c-19 0 -36 12 -36 33zM60 22c0 31 39 78 85 78c20 0 37 -11 37 -33c0 -35 -40 -78 -86 -78
c-19 0 -36 12 -36 33z" />
    <glyph glyph-name="perthousand" unicode="&#x2030;" horiz-adv-x="947" 
d="M762 15c87 0 165 197 165 268c0 29 -8 52 -32 52h-1c-71 0 -152 -188 -160 -266v-14c0 -23 7 -40 28 -40zM685 82c11 111 117 280 221 280c58 0 86 -42 86 -96c0 -112 -116 -278 -244 -278c-47 0 -64 32 -64 75c0 6 0 12 1 19zM501 15c73 0 153 199 159 270c1 4 1 9 1 13
c0 22 -7 37 -26 37h-1c-70 0 -152 -188 -161 -267c0 -5 -1 -9 -1 -14c0 -23 8 -39 29 -39zM425 83c10 111 117 279 220 279h1c45 0 64 -32 64 -77c0 -6 -1 -13 -1 -19c-11 -112 -117 -278 -221 -278c-47 0 -64 32 -64 76c0 6 0 12 1 19zM350 326c70 0 152 193 159 269
c0 5 1 10 1 14c0 22 -7 38 -26 38h-1c-84 0 -166 -191 -166 -268c0 -30 8 -53 33 -53zM250 393c0 114 119 282 245 282h1c45 0 63 -32 63 -77c0 -6 0 -12 -1 -19c-12 -111 -117 -281 -222 -281c-60 0 -86 42 -86 95zM819 671l-648 -706l-15 24l650 703z" />
    <glyph glyph-name="guilsinglleft" unicode="&#x2039;" horiz-adv-x="277" 
d="M264 49c0 -13 -7 -16 -13 -16c-11 0 1 1 -112 162l-20 27l90 59c5 3 12 7 21 14l38 23c125 83 114 90 144 98c4 0 7 -2 7 -6c0 -20 -140 -129 -206 -186l4 -13c32 -87 47 -141 47 -162z" />
    <glyph glyph-name="guilsinglright" unicode="&#x203a;" horiz-adv-x="279" 
d="M223 416c11 0 23 -28 28 -39c0 -9 46 -77 51 -82c5 -7 7 -11 10 -14l40 -59l-278 -183c-4 -4 -9 -6 -12 -6c-4 0 -7 2 -7 5c0 8 20 34 190 173l16 13l-36 93c-12 30 -17 54 -17 73c0 16 3 24 15 26z" />
    <glyph glyph-name="fraction" unicode="&#x2044;" horiz-adv-x="332" 
d="M532 660l46 24l21 -24l-519 -690l-42 -16l-27 16z" />
    <glyph glyph-name="fraction" unicode="&#x2215;" horiz-adv-x="332" 
d="M532 660l46 24l21 -24l-519 -690l-42 -16l-27 16z" />
    <glyph glyph-name="Euro" unicode="&#x20ac;" horiz-adv-x="564" 
d="M657 538c37 2 60 53 60 71c0 26 -26 49 -85 49c-79 0 -171 -81 -267 -268h218l-45 -41h-193c-7 -15 -21 -46 -27 -63h153l-42 -41h-125c-14 -44 -21 -83 -21 -116c0 -70 33 -112 98 -112c39 0 119 19 130 44c-12 1 -21 5 -21 15c0 26 36 52 58 52c13 0 19 -12 19 -26
c0 -52 -97 -116 -226 -116c-88 0 -142 55 -142 156c0 31 4 65 15 103h-75l45 41h42c2 7 20 51 27 63h-70l45 41h47c89 161 241 295 362 295c61 0 143 -26 143 -89c0 -11 -2 -22 -7 -34c-17 -40 -48 -76 -83 -76z" />
    <glyph glyph-name="afii61289" unicode="&#x2113;" horiz-adv-x="441" 
d="M331 337c164 122 233 250 233 312c0 19 -8 31 -25 31c-42 0 -82 -61 -152 -217zM237 -12c-53 0 -97 14 -97 71c0 25 9 57 32 109l34 76l-88 -46l-2 24l106 58l54 123c72 160 106 214 174 263c42 32 79 45 112 45c40 0 57 -24 57 -57c0 -21 -6 -46 -18 -72
c-51 -114 -158 -203 -290 -289l-37 -85c-23 -54 -34 -91 -34 -117c0 -37 21 -50 58 -50c51 0 106 34 154 74l13 -17c-75 -71 -149 -110 -228 -110z" />
    <glyph glyph-name="trademark" unicode="&#x2122;" horiz-adv-x="897" 
d="M753 256h-9l-49 310l-51 -223c-2 -10 -4 -18 -5 -25v-9c0 -21 11 -27 32 -31l-4 -20h-105l4 20c38 5 48 23 57 65l58 249c-4 31 -19 47 -44 50l4 20h97l52 -309l199 309h85l-3 -20c-41 -3 -53 -20 -61 -55l-48 -255c-2 -14 -3 -24 -3 -31c0 -18 10 -19 46 -23l-3 -20
h-164l5 20c38 6 38 -1 51 54l54 236zM532 642h-40l-71 -310c-4 -18 -7 -29 -7 -36c0 -13 9 -14 34 -18l-4 -20h-137l4 20c42 6 42 6 53 54l71 310h-44c-37 0 -64 -24 -82 -68h-21l14 88h304l-20 -88h-16c0 50 -13 68 -38 68z" />
    <glyph glyph-name="uni2126" unicode="&#x2126;" horiz-adv-x="784" 
d="M223 247c0 189 211 438 468 438c130 0 207 -61 207 -168c0 -38 -10 -83 -31 -133c-58 -137 -202 -247 -312 -319h117c45 0 60 8 111 76l24 -1l-84 -140h-247l1 20c77 72 228 205 289 353c28 65 39 117 39 158c0 90 -57 124 -128 124c-115 0 -241 -78 -331 -288
c-26 -62 -35 -120 -35 -173c0 -67 15 -126 26 -174l-16 -20h-244l33 140l26 1c-1 -10 -1 -18 -1 -26c0 -42 12 -50 49 -50h110c-29 37 -71 96 -71 182z" />
    <glyph glyph-name="estimated" unicode="&#x212e;" horiz-adv-x="849" 
d="M788 356l1 189c0 8 -4 16 -10 22c-63 59 -148 98 -244 98c-94 0 -182 -40 -245 -101c-6 -6 -9 -14 -9 -23l-1 -185c1 -2 2 -6 6 -6h498c3 0 5 4 4 6zM937 332h-651c-3 0 -6 -1 -5 -4l-1 -199c0 -8 3 -15 8 -21c63 -62 151 -102 247 -102c104 0 196 45 258 114h57
c-70 -80 -189 -133 -319 -133c-222 0 -399 164 -399 354c2 191 181 344 403 344s402 -153 402 -344c-1 -3 0 -6 0 -9z" />
    <glyph glyph-name="partialdiff" unicode="&#x2202;" horiz-adv-x="575" 
d="M410 381c-138 0 -172 -129 -172 -233c0 -72 41 -129 108 -129c62 0 104 50 129 100c31 59 43 109 56 188c-14 27 -61 74 -120 74h-1zM148 187c0 140 116 234 237 234h1c52 0 116 -24 151 -74c7 47 9 94 9 118c0 176 -104 236 -173 236c-84 0 -147 -59 -152 -59
c-14 0 -32 27 -32 48c0 5 0 9 2 12c37 22 88 42 154 42c104 0 174 -51 223 -137c44 -74 54 -167 54 -223c0 -204 -89 -396 -277 -396c-120 0 -197 77 -197 199z" />
    <glyph glyph-name="uni2206" unicode="&#x2206;" horiz-adv-x="548" 
d="M458 45l52 517l-396 -517h344zM543 0h-503l10 23l504 640l37 11l-38 -651z" />
    <glyph glyph-name="product" unicode="&#x220f;" horiz-adv-x="879" 
d="M863 669v-25c-92 -7 -98 -13 -98 -65l-2 -560v-14c0 -49 12 -56 95 -62v-25h-277l1 25c86 5 91 9 94 75l1 586c0 29 -7 32 -38 32h-237c-30 0 -36 -3 -36 -28v-590c-1 -10 -1 -19 -1 -26c0 -38 13 -44 83 -49l-1 -25h-268l1 25c86 6 95 12 97 75l1 561
c-1 53 -5 58 -98 65v25h683z" />
    <glyph glyph-name="summation" unicode="&#x2211;" horiz-adv-x="721" 
d="M723 101l-48 -187h-501l-1 24l246 337l-236 370l1 24h493c0 -17 8 -97 12 -161l-26 -6c-10 50 -23 85 -37 105c-13 22 -28 30 -110 30h-218l200 -312l-243 -339h288c94 0 105 4 152 122z" />
    <glyph glyph-name="minus" unicode="&#x2212;" horiz-adv-x="592" 
d="M133 246h435l-1 -70h-435z" />
    <glyph glyph-name="radical" unicode="&#x221a;" horiz-adv-x="528" 
d="M634 857l-179 -995l-23 -12l-233 535l-94 -45l-10 32l163 76l185 -436h3l148 855z" />
    <glyph glyph-name="infinity" unicode="&#x221e;" horiz-adv-x="786" 
d="M657 379h-1c-68 0 -121 -70 -155 -105c65 -73 103 -107 157 -107c62 0 100 54 100 102c0 66 -40 110 -101 110zM280 167h2c63 0 113 60 155 102c-45 53 -89 110 -162 110c-61 0 -101 -49 -101 -109c0 -56 43 -103 106 -103zM815 276l-1 -1v-2c0 -97 -78 -157 -159 -157
c-63 0 -117 35 -187 115c-56 -60 -111 -115 -194 -115c-84 0 -155 65 -157 155c0 92 71 158 165 158c78 0 134 -53 190 -115c50 54 101 115 189 115h2c90 0 151 -62 152 -153z" />
    <glyph glyph-name="integral" unicode="&#x222b;" horiz-adv-x="307" 
d="M210 17l-20 396c-1 26 -2 51 -2 74c0 267 77 332 160 332c25 0 62 -14 62 -46c0 -27 -22 -40 -44 -40c-2 41 -30 46 -54 46c-21 0 -47 -26 -47 -133c0 -10 0 -22 1 -34l20 -375c1 -26 2 -50 2 -73c0 -290 -80 -358 -164 -358c-37 0 -64 21 -65 46c0 25 25 45 52 45v-9
c0 -37 31 -40 52 -40c31 0 47 58 47 147v22z" />
    <glyph glyph-name="approxequal" unicode="&#x2248;" horiz-adv-x="579" 
d="M261 249c45 0 79 -18 112 -36s64 -36 101 -36c43 0 69 25 100 72l36 -33c-31 -52 -75 -93 -138 -93c-44 0 -79 18 -113 37c-34 18 -66 36 -104 36c-49 0 -78 -34 -105 -72l-38 32c33 56 88 93 149 93zM261 420c44 0 78 -18 111 -36s64 -36 102 -36c42 0 70 25 100 71
l36 -32c-30 -53 -76 -93 -138 -93c-43 0 -80 18 -114 37c-34 18 -67 36 -103 36c-49 0 -78 -34 -105 -72l-38 32c33 56 87 93 149 93z" />
    <glyph glyph-name="notequal" unicode="&#x2260;" horiz-adv-x="556" 
d="M481 488l-47 -94h159l1 -54h-182l-70 -140h251l1 -54h-275l-56 -116l-47 20l48 96h-153l-1 54h178l68 140h-245v54h267l56 114z" />
    <glyph glyph-name="lessequal" unicode="&#x2264;" horiz-adv-x="589" 
d="M585 0h-484l2 55h484zM583 93l-475 219v57l476 218v-63l-414 -182v-2l413 -183v-64z" />
    <glyph glyph-name="greaterequal" unicode="&#x2265;" horiz-adv-x="639" 
d="M641 0h-481l1 55h481zM168 587l474 -218l1 -58l-477 -218v63l415 183v2l-414 183z" />
    <glyph glyph-name="lozenge" unicode="&#x25ca;" horiz-adv-x="457" 
d="M492 320l-143 335h-5l-164 -333l146 -336h4zM558 320l-199 -391h-65l-180 391l198 395h65z" />
    <glyph glyph-name="Q.alt" unicode="&#xe674;" horiz-adv-x="646" 
d="M605 649c-179 0 -352 -373 -352 -524c0 -67 29 -103 85 -103c186 0 347 376 347 520c0 69 -28 107 -80 107zM155 176c0 207 239 509 464 509c94 0 144 -64 144 -165c0 -157 -145 -469 -373 -522c-6 -13 -10 -26 -11 -39c0 -4 -1 -8 -1 -12c0 -106 84 -163 213 -163h43
l-111 -69c-172 0 -193 249 -267 284c-65 34 -101 96 -101 177z" />
    <glyph glyph-name="c_t" unicode="&#xe6a4;" horiz-adv-x="565" 
d="M380 467c23 113 138 218 224 218c54 0 96 -41 96 -108c0 -9 -1 -18 -2 -28c-3 -13 -7 -29 -13 -45l-43 -103h78l-14 -32h-78l-101 -237c-13 -36 -22 -60 -24 -77c-1 -4 -1 -8 -1 -12c0 -17 8 -23 22 -23c-21 -16 -57 -33 -78 -33c-16 0 -26 12 -26 36c0 5 0 11 1 18
c3 19 12 45 25 76l139 328c9 23 16 40 19 52s1 19 -7 20c17 18 41 34 62 39c-2 49 -26 81 -68 81c-72 0 -158 -89 -174 -165c-4 -17 -6 -35 -6 -50v-8c33 -3 58 -21 58 -56c0 -6 -1 -12 -3 -19c-7 -34 -32 -69 -57 -71c-14 0 -28 5 -28 19v6l1 1c10 0 27 25 32 45
c1 3 1 6 1 9c0 18 -11 39 -37 39c-101 0 -186 -163 -197 -234c-2 -10 -2 -19 -2 -27c0 -50 25 -78 57 -78c28 0 70 2 99 16l-1 -18c-35 -28 -89 -59 -138 -59h-4h-1c-47 0 -89 44 -89 114c0 9 1 19 2 29c13 81 108 266 267 284c2 16 4 35 9 53z" />
    <glyph glyph-name="s_p" unicode="&#xe6a5;" horiz-adv-x="690" 
d="M542 299l-78 -185c-3 -9 -6 -18 -8 -26s-3 -16 -3 -23c0 -29 13 -52 42 -52c53 0 115 42 165 162c13 33 23 63 27 89c2 11 3 22 3 32c0 44 -18 68 -56 68c-34 0 -81 -40 -92 -65zM162 271c4 24 46 131 154 144c-1 9 -2 18 -2 28c0 9 1 19 2 30c15 92 137 212 232 212
c54 0 100 -38 100 -105c0 -8 -1 -16 -2 -25c-15 -77 -76 -137 -84 -187c-1 -8 -2 -16 0 -23c43 42 86 70 123 70c55 0 94 -32 94 -94c0 -9 -1 -19 -3 -29c-20 -128 -150 -305 -291 -305c-30 0 -41 14 -58 40l-82 -196c-10 -18 -16 -34 -18 -46c-1 -3 -1 -7 -1 -10
c0 -9 4 -15 13 -17c-27 -25 -52 -42 -83 -43h-1c-12 0 -17 7 -17 21c0 3 0 6 1 10c1 10 6 24 12 40l231 544c4 10 6 18 8 24c1 4 1 8 1 11c0 14 -9 17 -14 17c21 52 109 47 125 149c1 9 2 18 2 26c0 53 -31 80 -69 80c-73 0 -162 -91 -179 -175c-2 -9 -3 -19 -3 -29
c0 -6 0 -12 1 -18c22 -1 56 -15 58 -52c-12 -25 -52 -51 -75 -51c4 9 6 17 8 25c2 7 2 14 2 20c0 22 -9 36 -23 36h-1c-66 0 -88 -71 -88 -78v-8c0 -52 85 -73 85 -155c0 -8 -1 -18 -3 -28c-7 -34 -42 -137 -162 -137c-50 0 -103 12 -103 46v5c2 8 15 61 99 72
c-15 -15 -24 -30 -26 -41v-7c0 -26 24 -41 44 -42c56 0 80 41 85 69c2 5 2 10 2 15c0 28 -15 56 -31 76c-33 25 -64 47 -64 81c0 4 0 7 1 10z" />
    <glyph glyph-name="uniF6C3" unicode="&#xf6c3;" horiz-adv-x="192" 
d="M-30 -145c0 24 30 68 76 68c27 0 45 -15 45 -41c0 -41 -48 -122 -160 -166v17c59 31 96 62 108 90c2 7 0 11 -7 12c-1 0 -20 -4 -25 -4c-23 0 -37 8 -37 24z" />
    <glyph glyph-name="longs_t" unicode="&#xfb05;" horiz-adv-x="498" 
d="M570 400h87l-13 -32h-87l-100 -236c-16 -42 -23 -70 -23 -87c0 -19 9 -25 24 -25l-84 -34c-20 1 -31 15 -31 40c0 22 8 52 24 91l139 327c12 24 19 42 19 54c0 11 -6 17 -16 18l87 40c13 0 22 -8 22 -26c0 -12 -4 -28 -13 -50zM418 569l-214 -514
c-61 -139 -115 -198 -185 -198h-4c-20 0 -48 12 -48 34c69 2 110 42 169 180l124 298h-73l87 32c66 157 173 286 273 286c46 -1 61 -19 61 -43v-9l-1 -2c-6 -27 -33 -51 -57 -51c-23 0 -33 11 -36 26c17 1 29 18 31 29v2v2c0 10 -13 16 -33 16c-38 0 -69 -29 -94 -88z" />
    <glyph glyph-name="s_t" unicode="&#xfb06;" horiz-adv-x="516" 
d="M167 271c4 24 46 131 154 144c-1 9 -2 18 -2 28c0 9 1 19 3 30c14 92 136 212 231 212c56 0 97 -42 97 -111c0 -8 -1 -16 -2 -25c-2 -13 -7 -29 -12 -45l-44 -103h78l-14 -32h-78l-100 -237c-14 -36 -22 -60 -25 -77c-1 -4 -1 -8 -1 -12c0 -17 8 -23 22 -23
c-20 -16 -56 -33 -77 -33c-17 0 -26 12 -26 36c0 5 1 11 2 18c2 19 10 45 23 76l140 328c9 23 16 40 18 52c1 2 1 4 1 6v3c0 6 -2 10 -8 11c17 18 41 34 62 39c-2 49 -26 81 -69 81c-73 0 -162 -91 -178 -175c-2 -6 -3 -12 -3 -18c-1 -3 -1 -7 -1 -11c0 -6 1 -12 2 -18
c21 -1 55 -15 57 -52c-12 -25 -51 -51 -75 -51c4 9 6 17 8 25c1 5 2 9 2 13c0 2 1 5 1 7c0 22 -10 36 -24 36h-1c-66 0 -87 -71 -88 -78v-6c0 -53 86 -75 86 -156c0 -3 0 -7 -1 -11c0 -5 -1 -11 -3 -18c-6 -34 -42 -137 -162 -137c-49 0 -103 12 -103 46c0 2 0 3 1 5
c1 8 14 61 99 72c-16 -15 -24 -30 -26 -41c-1 -3 -1 -5 -1 -7c0 -26 25 -41 44 -42c56 0 81 41 86 69c0 3 1 6 1 8v7c0 28 -15 56 -31 76c-33 25 -64 47 -64 81c0 4 1 7 1 10z" />
    </font>
</defs>
</svg>
